<mxfile host="app.diagrams.net" modified="2024-04-23T17:52:04.758Z" agent="Mozilla/5.0 (Windows NT 10.0; Win64; x64) AppleWebKit/537.36 (KHTML, like Gecko) Chrome/124.0.0.0 Safari/537.36" etag="rWiBF3UmbejTi7jfo2IC" version="24.2.8" type="device">
  <diagram name="Страница — 1" id="K_1DlsJS7bNeDVH2k9GW">
    <mxGraphModel dx="1477" dy="649" grid="1" gridSize="10" guides="1" tooltips="1" connect="1" arrows="1" fold="1" page="1" pageScale="1" pageWidth="827" pageHeight="1169" math="0" shadow="0">
      <root>
        <mxCell id="0" />
        <mxCell id="1" parent="0" />
        <mxCell id="_JErElgk5kfkZ12CzzZY-1" value="Speciality" style="rounded=0;whiteSpace=wrap;html=1;" parent="1" vertex="1">
          <mxGeometry x="130" y="100" width="100" height="40" as="geometry" />
        </mxCell>
        <mxCell id="_JErElgk5kfkZ12CzzZY-6" value="IdSpeciality" style="rounded=1;whiteSpace=wrap;html=1;arcSize=46;" parent="1" vertex="1">
          <mxGeometry x="200" y="50" width="100" height="20" as="geometry" />
        </mxCell>
        <mxCell id="_JErElgk5kfkZ12CzzZY-7" value="SalaryOneRate" style="rounded=1;whiteSpace=wrap;html=1;arcSize=46;" parent="1" vertex="1">
          <mxGeometry x="140" y="20" width="100" height="20" as="geometry" />
        </mxCell>
        <mxCell id="_JErElgk5kfkZ12CzzZY-8" value="Name&amp;nbsp;" style="rounded=1;whiteSpace=wrap;html=1;arcSize=46;" parent="1" vertex="1">
          <mxGeometry x="80" y="50" width="100" height="20" as="geometry" />
        </mxCell>
        <mxCell id="_JErElgk5kfkZ12CzzZY-9" value="Description&amp;nbsp;" style="rounded=1;whiteSpace=wrap;html=1;arcSize=46;" parent="1" vertex="1">
          <mxGeometry x="20" y="20" width="100" height="20" as="geometry" />
        </mxCell>
        <mxCell id="_JErElgk5kfkZ12CzzZY-10" value="TypeDepartment" style="rounded=0;whiteSpace=wrap;html=1;" parent="1" vertex="1">
          <mxGeometry x="380" y="70" width="100" height="40" as="geometry" />
        </mxCell>
        <mxCell id="_JErElgk5kfkZ12CzzZY-11" value="NameType" style="rounded=1;whiteSpace=wrap;html=1;arcSize=46;" parent="1" vertex="1">
          <mxGeometry x="450" y="20" width="100" height="20" as="geometry" />
        </mxCell>
        <mxCell id="_JErElgk5kfkZ12CzzZY-12" value="IdTypeDepartment" style="rounded=1;whiteSpace=wrap;html=1;arcSize=46;" parent="1" vertex="1">
          <mxGeometry x="330" y="20" width="110" height="20" as="geometry" />
        </mxCell>
        <mxCell id="_JErElgk5kfkZ12CzzZY-13" value="Department" style="rounded=0;whiteSpace=wrap;html=1;" parent="1" vertex="1">
          <mxGeometry x="580" y="140" width="100" height="40" as="geometry" />
        </mxCell>
        <mxCell id="_JErElgk5kfkZ12CzzZY-14" value="IdTypeDepartment&amp;nbsp;" style="rounded=1;whiteSpace=wrap;html=1;arcSize=46;" parent="1" vertex="1">
          <mxGeometry x="600" y="50" width="110" height="20" as="geometry" />
        </mxCell>
        <mxCell id="_JErElgk5kfkZ12CzzZY-15" value="IdDepartment" style="rounded=1;whiteSpace=wrap;html=1;arcSize=46;" parent="1" vertex="1">
          <mxGeometry x="540" y="80" width="100" height="20" as="geometry" />
        </mxCell>
        <mxCell id="_JErElgk5kfkZ12CzzZY-16" value="Name&amp;nbsp;" style="rounded=1;whiteSpace=wrap;html=1;arcSize=46;" parent="1" vertex="1">
          <mxGeometry x="680" y="110" width="100" height="20" as="geometry" />
        </mxCell>
        <mxCell id="_JErElgk5kfkZ12CzzZY-17" value="Description&amp;nbsp;" style="rounded=1;whiteSpace=wrap;html=1;arcSize=46;" parent="1" vertex="1">
          <mxGeometry x="670" y="80" width="100" height="20" as="geometry" />
        </mxCell>
        <mxCell id="_JErElgk5kfkZ12CzzZY-19" value="CountBrigade&amp;nbsp;" style="rounded=1;whiteSpace=wrap;html=1;arcSize=46;" parent="1" vertex="1">
          <mxGeometry x="700" y="140" width="100" height="20" as="geometry" />
        </mxCell>
        <mxCell id="_JErElgk5kfkZ12CzzZY-30" value="включает" style="rhombus;whiteSpace=wrap;html=1;" parent="1" vertex="1">
          <mxGeometry x="480" y="120" width="60" height="40" as="geometry" />
        </mxCell>
        <mxCell id="_JErElgk5kfkZ12CzzZY-31" value="" style="endArrow=classic;html=1;rounded=0;exitX=1;exitY=0.5;exitDx=0;exitDy=0;entryX=0;entryY=0.5;entryDx=0;entryDy=0;" parent="1" source="_JErElgk5kfkZ12CzzZY-30" target="_JErElgk5kfkZ12CzzZY-13" edge="1">
          <mxGeometry width="50" height="50" relative="1" as="geometry">
            <mxPoint x="500" y="260" as="sourcePoint" />
            <mxPoint x="550" y="210" as="targetPoint" />
          </mxGeometry>
        </mxCell>
        <mxCell id="_JErElgk5kfkZ12CzzZY-32" value="" style="endArrow=classic;html=1;rounded=0;exitX=0;exitY=0.5;exitDx=0;exitDy=0;entryX=0.75;entryY=1;entryDx=0;entryDy=0;" parent="1" source="_JErElgk5kfkZ12CzzZY-30" target="_JErElgk5kfkZ12CzzZY-10" edge="1">
          <mxGeometry width="50" height="50" relative="1" as="geometry">
            <mxPoint x="400" y="150" as="sourcePoint" />
            <mxPoint x="450" y="100" as="targetPoint" />
          </mxGeometry>
        </mxCell>
        <mxCell id="oD9RIdHMMdvpA3VCm38I-1" value="" style="endArrow=none;html=1;rounded=0;entryX=0.25;entryY=1;entryDx=0;entryDy=0;exitX=0;exitY=0.25;exitDx=0;exitDy=0;" parent="1" source="_JErElgk5kfkZ12CzzZY-1" target="_JErElgk5kfkZ12CzzZY-9" edge="1">
          <mxGeometry width="50" height="50" relative="1" as="geometry">
            <mxPoint x="30" y="165" as="sourcePoint" />
            <mxPoint x="80" y="115" as="targetPoint" />
          </mxGeometry>
        </mxCell>
        <mxCell id="oD9RIdHMMdvpA3VCm38I-2" value="" style="endArrow=none;html=1;rounded=0;entryX=0.5;entryY=1;entryDx=0;entryDy=0;exitX=0.25;exitY=0;exitDx=0;exitDy=0;" parent="1" source="_JErElgk5kfkZ12CzzZY-1" target="_JErElgk5kfkZ12CzzZY-8" edge="1">
          <mxGeometry width="50" height="50" relative="1" as="geometry">
            <mxPoint x="140" y="120" as="sourcePoint" />
            <mxPoint x="40" y="50" as="targetPoint" />
          </mxGeometry>
        </mxCell>
        <mxCell id="oD9RIdHMMdvpA3VCm38I-3" value="" style="endArrow=none;html=1;rounded=0;entryX=0.5;entryY=1;entryDx=0;entryDy=0;exitX=0.5;exitY=0;exitDx=0;exitDy=0;" parent="1" source="_JErElgk5kfkZ12CzzZY-1" target="_JErElgk5kfkZ12CzzZY-7" edge="1">
          <mxGeometry width="50" height="50" relative="1" as="geometry">
            <mxPoint x="165" y="110" as="sourcePoint" />
            <mxPoint x="140" y="80" as="targetPoint" />
          </mxGeometry>
        </mxCell>
        <mxCell id="oD9RIdHMMdvpA3VCm38I-4" value="" style="endArrow=none;html=1;rounded=0;entryX=0.25;entryY=1;entryDx=0;entryDy=0;exitX=0.75;exitY=0;exitDx=0;exitDy=0;" parent="1" source="_JErElgk5kfkZ12CzzZY-1" target="_JErElgk5kfkZ12CzzZY-6" edge="1">
          <mxGeometry width="50" height="50" relative="1" as="geometry">
            <mxPoint x="190" y="110" as="sourcePoint" />
            <mxPoint x="200" y="50" as="targetPoint" />
          </mxGeometry>
        </mxCell>
        <mxCell id="oD9RIdHMMdvpA3VCm38I-5" value="" style="endArrow=none;html=1;rounded=0;entryX=0.5;entryY=1;entryDx=0;entryDy=0;exitX=0.25;exitY=0;exitDx=0;exitDy=0;" parent="1" source="_JErElgk5kfkZ12CzzZY-10" target="_JErElgk5kfkZ12CzzZY-12" edge="1">
          <mxGeometry width="50" height="50" relative="1" as="geometry">
            <mxPoint x="200" y="120" as="sourcePoint" />
            <mxPoint x="210" y="60" as="targetPoint" />
          </mxGeometry>
        </mxCell>
        <mxCell id="oD9RIdHMMdvpA3VCm38I-6" value="" style="endArrow=none;html=1;rounded=0;entryX=0.25;entryY=1;entryDx=0;entryDy=0;exitX=0.75;exitY=0;exitDx=0;exitDy=0;" parent="1" source="_JErElgk5kfkZ12CzzZY-10" target="_JErElgk5kfkZ12CzzZY-11" edge="1">
          <mxGeometry width="50" height="50" relative="1" as="geometry">
            <mxPoint x="415" y="80" as="sourcePoint" />
            <mxPoint x="395" y="50" as="targetPoint" />
          </mxGeometry>
        </mxCell>
        <mxCell id="oD9RIdHMMdvpA3VCm38I-7" value="" style="endArrow=none;html=1;rounded=0;entryX=0.5;entryY=1;entryDx=0;entryDy=0;exitX=0.25;exitY=0;exitDx=0;exitDy=0;" parent="1" source="_JErElgk5kfkZ12CzzZY-13" target="_JErElgk5kfkZ12CzzZY-15" edge="1">
          <mxGeometry width="50" height="50" relative="1" as="geometry">
            <mxPoint x="465" y="80" as="sourcePoint" />
            <mxPoint x="485" y="50" as="targetPoint" />
          </mxGeometry>
        </mxCell>
        <mxCell id="oD9RIdHMMdvpA3VCm38I-8" value="" style="endArrow=none;html=1;rounded=0;exitX=0.5;exitY=0;exitDx=0;exitDy=0;entryX=0.5;entryY=1;entryDx=0;entryDy=0;" parent="1" source="_JErElgk5kfkZ12CzzZY-13" target="_JErElgk5kfkZ12CzzZY-14" edge="1">
          <mxGeometry width="50" height="50" relative="1" as="geometry">
            <mxPoint x="615" y="150" as="sourcePoint" />
            <mxPoint x="650" y="100" as="targetPoint" />
          </mxGeometry>
        </mxCell>
        <mxCell id="oD9RIdHMMdvpA3VCm38I-9" value="" style="endArrow=none;html=1;rounded=0;entryX=0;entryY=0.5;entryDx=0;entryDy=0;" parent="1" target="_JErElgk5kfkZ12CzzZY-17" edge="1">
          <mxGeometry width="50" height="50" relative="1" as="geometry">
            <mxPoint x="630" y="140" as="sourcePoint" />
            <mxPoint x="660" y="100" as="targetPoint" />
          </mxGeometry>
        </mxCell>
        <mxCell id="oD9RIdHMMdvpA3VCm38I-10" value="" style="endArrow=none;html=1;rounded=0;entryX=0;entryY=0.5;entryDx=0;entryDy=0;exitX=0.75;exitY=0;exitDx=0;exitDy=0;" parent="1" source="_JErElgk5kfkZ12CzzZY-13" target="_JErElgk5kfkZ12CzzZY-16" edge="1">
          <mxGeometry width="50" height="50" relative="1" as="geometry">
            <mxPoint x="650" y="160" as="sourcePoint" />
            <mxPoint x="670" y="110" as="targetPoint" />
          </mxGeometry>
        </mxCell>
        <mxCell id="oD9RIdHMMdvpA3VCm38I-11" value="" style="endArrow=none;html=1;rounded=0;entryX=0;entryY=0.25;entryDx=0;entryDy=0;exitX=1;exitY=0;exitDx=0;exitDy=0;" parent="1" source="_JErElgk5kfkZ12CzzZY-13" target="_JErElgk5kfkZ12CzzZY-19" edge="1">
          <mxGeometry width="50" height="50" relative="1" as="geometry">
            <mxPoint x="690" y="150" as="sourcePoint" />
            <mxPoint x="710" y="150" as="targetPoint" />
          </mxGeometry>
        </mxCell>
        <mxCell id="oD9RIdHMMdvpA3VCm38I-12" value="TypeEngine" style="rounded=0;whiteSpace=wrap;html=1;" parent="1" vertex="1">
          <mxGeometry x="990" y="320" width="100" height="40" as="geometry" />
        </mxCell>
        <mxCell id="oD9RIdHMMdvpA3VCm38I-13" value="NameType" style="rounded=1;whiteSpace=wrap;html=1;arcSize=46;" parent="1" vertex="1">
          <mxGeometry x="1100" y="370" width="100" height="20" as="geometry" />
        </mxCell>
        <mxCell id="oD9RIdHMMdvpA3VCm38I-14" value="IdTypeEngine" style="rounded=1;whiteSpace=wrap;html=1;arcSize=46;" parent="1" vertex="1">
          <mxGeometry x="1080" y="290" width="110" height="20" as="geometry" />
        </mxCell>
        <mxCell id="oD9RIdHMMdvpA3VCm38I-15" value="Engine" style="rounded=0;whiteSpace=wrap;html=1;" parent="1" vertex="1">
          <mxGeometry x="780" y="260" width="100" height="40" as="geometry" />
        </mxCell>
        <mxCell id="oD9RIdHMMdvpA3VCm38I-16" value="IdTypeDepartment&amp;nbsp;" style="rounded=1;whiteSpace=wrap;html=1;arcSize=46;" parent="1" vertex="1">
          <mxGeometry x="800" y="170" width="110" height="20" as="geometry" />
        </mxCell>
        <mxCell id="oD9RIdHMMdvpA3VCm38I-17" value="IdEngine&amp;nbsp;" style="rounded=1;whiteSpace=wrap;html=1;arcSize=46;" parent="1" vertex="1">
          <mxGeometry x="740" y="200" width="100" height="20" as="geometry" />
        </mxCell>
        <mxCell id="oD9RIdHMMdvpA3VCm38I-18" value="Name&amp;nbsp;" style="rounded=1;whiteSpace=wrap;html=1;arcSize=46;" parent="1" vertex="1">
          <mxGeometry x="880" y="230" width="100" height="20" as="geometry" />
        </mxCell>
        <mxCell id="oD9RIdHMMdvpA3VCm38I-19" value="Efficiency&amp;nbsp;" style="rounded=1;whiteSpace=wrap;html=1;arcSize=46;" parent="1" vertex="1">
          <mxGeometry x="870" y="200" width="100" height="20" as="geometry" />
        </mxCell>
        <mxCell id="oD9RIdHMMdvpA3VCm38I-20" value="NumberOfCylinders&amp;nbsp;" style="rounded=1;whiteSpace=wrap;html=1;arcSize=46;" parent="1" vertex="1">
          <mxGeometry x="900" y="260" width="120" height="20" as="geometry" />
        </mxCell>
        <mxCell id="oD9RIdHMMdvpA3VCm38I-21" value="включает" style="rhombus;whiteSpace=wrap;html=1;" parent="1" vertex="1">
          <mxGeometry x="890" y="310" width="60" height="40" as="geometry" />
        </mxCell>
        <mxCell id="oD9RIdHMMdvpA3VCm38I-22" value="" style="endArrow=classic;html=1;rounded=0;exitX=1;exitY=0.5;exitDx=0;exitDy=0;entryX=0;entryY=0.5;entryDx=0;entryDy=0;" parent="1" source="oD9RIdHMMdvpA3VCm38I-21" target="oD9RIdHMMdvpA3VCm38I-12" edge="1">
          <mxGeometry width="50" height="50" relative="1" as="geometry">
            <mxPoint x="910" y="450" as="sourcePoint" />
            <mxPoint x="980" y="350" as="targetPoint" />
          </mxGeometry>
        </mxCell>
        <mxCell id="oD9RIdHMMdvpA3VCm38I-24" value="" style="endArrow=none;html=1;rounded=0;entryX=0.5;entryY=1;entryDx=0;entryDy=0;exitX=1;exitY=0.25;exitDx=0;exitDy=0;" parent="1" source="oD9RIdHMMdvpA3VCm38I-12" target="oD9RIdHMMdvpA3VCm38I-14" edge="1">
          <mxGeometry width="50" height="50" relative="1" as="geometry">
            <mxPoint x="810" y="370" as="sourcePoint" />
            <mxPoint x="820" y="310" as="targetPoint" />
          </mxGeometry>
        </mxCell>
        <mxCell id="oD9RIdHMMdvpA3VCm38I-26" value="" style="endArrow=none;html=1;rounded=0;entryX=0.5;entryY=1;entryDx=0;entryDy=0;exitX=0.25;exitY=0;exitDx=0;exitDy=0;" parent="1" source="oD9RIdHMMdvpA3VCm38I-15" target="oD9RIdHMMdvpA3VCm38I-17" edge="1">
          <mxGeometry width="50" height="50" relative="1" as="geometry">
            <mxPoint x="665" y="200" as="sourcePoint" />
            <mxPoint x="685" y="170" as="targetPoint" />
          </mxGeometry>
        </mxCell>
        <mxCell id="oD9RIdHMMdvpA3VCm38I-27" value="" style="endArrow=none;html=1;rounded=0;exitX=0.5;exitY=0;exitDx=0;exitDy=0;entryX=0.5;entryY=1;entryDx=0;entryDy=0;" parent="1" source="oD9RIdHMMdvpA3VCm38I-15" target="oD9RIdHMMdvpA3VCm38I-16" edge="1">
          <mxGeometry width="50" height="50" relative="1" as="geometry">
            <mxPoint x="815" y="270" as="sourcePoint" />
            <mxPoint x="850" y="220" as="targetPoint" />
          </mxGeometry>
        </mxCell>
        <mxCell id="oD9RIdHMMdvpA3VCm38I-28" value="" style="endArrow=none;html=1;rounded=0;entryX=0;entryY=0.5;entryDx=0;entryDy=0;" parent="1" target="oD9RIdHMMdvpA3VCm38I-19" edge="1">
          <mxGeometry width="50" height="50" relative="1" as="geometry">
            <mxPoint x="830" y="260" as="sourcePoint" />
            <mxPoint x="860" y="220" as="targetPoint" />
          </mxGeometry>
        </mxCell>
        <mxCell id="oD9RIdHMMdvpA3VCm38I-29" value="" style="endArrow=none;html=1;rounded=0;entryX=0;entryY=0.5;entryDx=0;entryDy=0;exitX=0.75;exitY=0;exitDx=0;exitDy=0;" parent="1" source="oD9RIdHMMdvpA3VCm38I-15" target="oD9RIdHMMdvpA3VCm38I-18" edge="1">
          <mxGeometry width="50" height="50" relative="1" as="geometry">
            <mxPoint x="850" y="280" as="sourcePoint" />
            <mxPoint x="870" y="230" as="targetPoint" />
          </mxGeometry>
        </mxCell>
        <mxCell id="oD9RIdHMMdvpA3VCm38I-30" value="" style="endArrow=none;html=1;rounded=0;entryX=0;entryY=0.25;entryDx=0;entryDy=0;exitX=1;exitY=0;exitDx=0;exitDy=0;" parent="1" source="oD9RIdHMMdvpA3VCm38I-15" target="oD9RIdHMMdvpA3VCm38I-20" edge="1">
          <mxGeometry width="50" height="50" relative="1" as="geometry">
            <mxPoint x="890" y="270" as="sourcePoint" />
            <mxPoint x="910" y="270" as="targetPoint" />
          </mxGeometry>
        </mxCell>
        <mxCell id="oD9RIdHMMdvpA3VCm38I-32" value="" style="endArrow=none;html=1;rounded=0;entryX=0.25;entryY=0;entryDx=0;entryDy=0;exitX=1;exitY=0.75;exitDx=0;exitDy=0;" parent="1" source="oD9RIdHMMdvpA3VCm38I-12" target="oD9RIdHMMdvpA3VCm38I-13" edge="1">
          <mxGeometry width="50" height="50" relative="1" as="geometry">
            <mxPoint x="1100" y="340" as="sourcePoint" />
            <mxPoint x="1175" y="320" as="targetPoint" />
          </mxGeometry>
        </mxCell>
        <mxCell id="oD9RIdHMMdvpA3VCm38I-33" value="" style="endArrow=classic;html=1;rounded=0;entryX=0.75;entryY=1;entryDx=0;entryDy=0;exitX=0;exitY=0.5;exitDx=0;exitDy=0;" parent="1" source="oD9RIdHMMdvpA3VCm38I-21" target="oD9RIdHMMdvpA3VCm38I-15" edge="1">
          <mxGeometry width="50" height="50" relative="1" as="geometry">
            <mxPoint x="800" y="400" as="sourcePoint" />
            <mxPoint x="850" y="350" as="targetPoint" />
          </mxGeometry>
        </mxCell>
        <mxCell id="oD9RIdHMMdvpA3VCm38I-34" value="Locomative&amp;nbsp;" style="rounded=0;whiteSpace=wrap;html=1;" parent="1" vertex="1">
          <mxGeometry x="750" y="410" width="100" height="40" as="geometry" />
        </mxCell>
        <mxCell id="oD9RIdHMMdvpA3VCm38I-35" value="IdEngine&amp;nbsp;" style="rounded=1;whiteSpace=wrap;html=1;arcSize=46;" parent="1" vertex="1">
          <mxGeometry x="885" y="400" width="110" height="20" as="geometry" />
        </mxCell>
        <mxCell id="oD9RIdHMMdvpA3VCm38I-36" value="IdLocomative&amp;nbsp;" style="rounded=1;whiteSpace=wrap;html=1;arcSize=46;" parent="1" vertex="1">
          <mxGeometry x="885" y="370" width="100" height="20" as="geometry" />
        </mxCell>
        <mxCell id="oD9RIdHMMdvpA3VCm38I-37" value="Name&amp;nbsp;" style="rounded=1;whiteSpace=wrap;html=1;arcSize=46;" parent="1" vertex="1">
          <mxGeometry x="890" y="460" width="100" height="20" as="geometry" />
        </mxCell>
        <mxCell id="oD9RIdHMMdvpA3VCm38I-38" value="Weight&amp;nbsp;" style="rounded=1;whiteSpace=wrap;html=1;arcSize=46;" parent="1" vertex="1">
          <mxGeometry x="890" y="430" width="100" height="20" as="geometry" />
        </mxCell>
        <mxCell id="oD9RIdHMMdvpA3VCm38I-39" value="TractionForce&amp;nbsp;" style="rounded=1;whiteSpace=wrap;html=1;arcSize=46;" parent="1" vertex="1">
          <mxGeometry x="890" y="490" width="120" height="20" as="geometry" />
        </mxCell>
        <mxCell id="oD9RIdHMMdvpA3VCm38I-40" value="" style="endArrow=none;html=1;rounded=0;entryX=0;entryY=0.5;entryDx=0;entryDy=0;exitX=1;exitY=0;exitDx=0;exitDy=0;" parent="1" source="oD9RIdHMMdvpA3VCm38I-34" target="oD9RIdHMMdvpA3VCm38I-36" edge="1">
          <mxGeometry width="50" height="50" relative="1" as="geometry">
            <mxPoint x="635" y="350" as="sourcePoint" />
            <mxPoint x="655" y="320" as="targetPoint" />
          </mxGeometry>
        </mxCell>
        <mxCell id="oD9RIdHMMdvpA3VCm38I-41" value="" style="endArrow=none;html=1;rounded=0;exitX=1;exitY=0.25;exitDx=0;exitDy=0;entryX=0;entryY=0.5;entryDx=0;entryDy=0;" parent="1" source="oD9RIdHMMdvpA3VCm38I-34" target="oD9RIdHMMdvpA3VCm38I-35" edge="1">
          <mxGeometry width="50" height="50" relative="1" as="geometry">
            <mxPoint x="785" y="420" as="sourcePoint" />
            <mxPoint x="820" y="370" as="targetPoint" />
          </mxGeometry>
        </mxCell>
        <mxCell id="oD9RIdHMMdvpA3VCm38I-42" value="" style="endArrow=none;html=1;rounded=0;entryX=0;entryY=0.5;entryDx=0;entryDy=0;exitX=1;exitY=0.5;exitDx=0;exitDy=0;" parent="1" source="oD9RIdHMMdvpA3VCm38I-34" target="oD9RIdHMMdvpA3VCm38I-38" edge="1">
          <mxGeometry width="50" height="50" relative="1" as="geometry">
            <mxPoint x="800" y="410" as="sourcePoint" />
            <mxPoint x="830" y="370" as="targetPoint" />
          </mxGeometry>
        </mxCell>
        <mxCell id="oD9RIdHMMdvpA3VCm38I-43" value="" style="endArrow=none;html=1;rounded=0;entryX=0;entryY=0.5;entryDx=0;entryDy=0;exitX=1;exitY=0.75;exitDx=0;exitDy=0;" parent="1" source="oD9RIdHMMdvpA3VCm38I-34" target="oD9RIdHMMdvpA3VCm38I-37" edge="1">
          <mxGeometry width="50" height="50" relative="1" as="geometry">
            <mxPoint x="820" y="430" as="sourcePoint" />
            <mxPoint x="840" y="380" as="targetPoint" />
          </mxGeometry>
        </mxCell>
        <mxCell id="oD9RIdHMMdvpA3VCm38I-44" value="" style="endArrow=none;html=1;rounded=0;entryX=0;entryY=0.25;entryDx=0;entryDy=0;exitX=1;exitY=1;exitDx=0;exitDy=0;" parent="1" source="oD9RIdHMMdvpA3VCm38I-34" target="oD9RIdHMMdvpA3VCm38I-39" edge="1">
          <mxGeometry width="50" height="50" relative="1" as="geometry">
            <mxPoint x="860" y="420" as="sourcePoint" />
            <mxPoint x="880" y="420" as="targetPoint" />
          </mxGeometry>
        </mxCell>
        <mxCell id="oD9RIdHMMdvpA3VCm38I-45" value="InspectionDate&amp;nbsp;" style="rounded=1;whiteSpace=wrap;html=1;arcSize=46;" parent="1" vertex="1">
          <mxGeometry x="890" y="520" width="120" height="20" as="geometry" />
        </mxCell>
        <mxCell id="oD9RIdHMMdvpA3VCm38I-46" value="" style="endArrow=none;html=1;rounded=0;entryX=0;entryY=0.25;entryDx=0;entryDy=0;exitX=1;exitY=1;exitDx=0;exitDy=0;" parent="1" source="oD9RIdHMMdvpA3VCm38I-34" target="oD9RIdHMMdvpA3VCm38I-45" edge="1">
          <mxGeometry width="50" height="50" relative="1" as="geometry">
            <mxPoint x="860" y="460" as="sourcePoint" />
            <mxPoint x="900" y="505" as="targetPoint" />
          </mxGeometry>
        </mxCell>
        <mxCell id="oD9RIdHMMdvpA3VCm38I-47" value="включает" style="rhombus;whiteSpace=wrap;html=1;" parent="1" vertex="1">
          <mxGeometry x="770" y="340" width="60" height="40" as="geometry" />
        </mxCell>
        <mxCell id="oD9RIdHMMdvpA3VCm38I-48" value="" style="endArrow=classic;html=1;rounded=0;entryX=0.5;entryY=0;entryDx=0;entryDy=0;exitX=0.5;exitY=1;exitDx=0;exitDy=0;" parent="1" source="oD9RIdHMMdvpA3VCm38I-47" target="oD9RIdHMMdvpA3VCm38I-34" edge="1">
          <mxGeometry width="50" height="50" relative="1" as="geometry">
            <mxPoint x="630" y="410" as="sourcePoint" />
            <mxPoint x="680" y="360" as="targetPoint" />
          </mxGeometry>
        </mxCell>
        <mxCell id="oD9RIdHMMdvpA3VCm38I-49" value="" style="endArrow=classic;html=1;rounded=0;entryX=0.196;entryY=0.983;entryDx=0;entryDy=0;exitX=0.5;exitY=0;exitDx=0;exitDy=0;entryPerimeter=0;" parent="1" source="oD9RIdHMMdvpA3VCm38I-47" target="oD9RIdHMMdvpA3VCm38I-15" edge="1">
          <mxGeometry width="50" height="50" relative="1" as="geometry">
            <mxPoint x="660" y="390" as="sourcePoint" />
            <mxPoint x="710" y="340" as="targetPoint" />
          </mxGeometry>
        </mxCell>
        <mxCell id="oD9RIdHMMdvpA3VCm38I-50" value="Brigade" style="rounded=0;whiteSpace=wrap;html=1;" parent="1" vertex="1">
          <mxGeometry x="490" y="270" width="100" height="40" as="geometry" />
        </mxCell>
        <mxCell id="oD9RIdHMMdvpA3VCm38I-51" value="IdLocomative&amp;nbsp;" style="rounded=1;whiteSpace=wrap;html=1;arcSize=46;" parent="1" vertex="1">
          <mxGeometry x="550" y="320" width="110" height="20" as="geometry" />
        </mxCell>
        <mxCell id="oD9RIdHMMdvpA3VCm38I-52" value="NumberInDepartment&amp;nbsp;" style="rounded=1;whiteSpace=wrap;html=1;arcSize=46;" parent="1" vertex="1">
          <mxGeometry x="440" y="380" width="130" height="20" as="geometry" />
        </mxCell>
        <mxCell id="oD9RIdHMMdvpA3VCm38I-53" value="IdDepartment&amp;nbsp;" style="rounded=1;whiteSpace=wrap;html=1;arcSize=46;" parent="1" vertex="1">
          <mxGeometry x="525" y="350" width="100" height="20" as="geometry" />
        </mxCell>
        <mxCell id="oD9RIdHMMdvpA3VCm38I-54" value="CountWorker&amp;nbsp;" style="rounded=1;whiteSpace=wrap;html=1;arcSize=46;" parent="1" vertex="1">
          <mxGeometry x="400" y="350" width="120" height="20" as="geometry" />
        </mxCell>
        <mxCell id="oD9RIdHMMdvpA3VCm38I-56" value="" style="endArrow=none;html=1;rounded=0;exitX=0.75;exitY=1;exitDx=0;exitDy=0;entryX=0.25;entryY=0;entryDx=0;entryDy=0;" parent="1" source="oD9RIdHMMdvpA3VCm38I-50" target="oD9RIdHMMdvpA3VCm38I-51" edge="1">
          <mxGeometry width="50" height="50" relative="1" as="geometry">
            <mxPoint x="525" y="280" as="sourcePoint" />
            <mxPoint x="560" y="230" as="targetPoint" />
          </mxGeometry>
        </mxCell>
        <mxCell id="oD9RIdHMMdvpA3VCm38I-57" value="" style="endArrow=none;html=1;rounded=0;entryX=0.25;entryY=0;entryDx=0;entryDy=0;exitX=0.5;exitY=1;exitDx=0;exitDy=0;" parent="1" source="oD9RIdHMMdvpA3VCm38I-50" target="oD9RIdHMMdvpA3VCm38I-53" edge="1">
          <mxGeometry width="50" height="50" relative="1" as="geometry">
            <mxPoint x="540" y="270" as="sourcePoint" />
            <mxPoint x="570" y="230" as="targetPoint" />
          </mxGeometry>
        </mxCell>
        <mxCell id="oD9RIdHMMdvpA3VCm38I-58" value="" style="endArrow=none;html=1;rounded=0;entryX=0.637;entryY=-0.02;entryDx=0;entryDy=0;exitX=0.312;exitY=0.98;exitDx=0;exitDy=0;exitPerimeter=0;entryPerimeter=0;" parent="1" source="oD9RIdHMMdvpA3VCm38I-50" target="oD9RIdHMMdvpA3VCm38I-52" edge="1">
          <mxGeometry width="50" height="50" relative="1" as="geometry">
            <mxPoint x="560" y="290" as="sourcePoint" />
            <mxPoint x="580" y="240" as="targetPoint" />
          </mxGeometry>
        </mxCell>
        <mxCell id="oD9RIdHMMdvpA3VCm38I-59" value="" style="endArrow=none;html=1;rounded=0;entryX=0.75;entryY=0;entryDx=0;entryDy=0;exitX=0.25;exitY=1;exitDx=0;exitDy=0;" parent="1" source="oD9RIdHMMdvpA3VCm38I-50" target="oD9RIdHMMdvpA3VCm38I-54" edge="1">
          <mxGeometry width="50" height="50" relative="1" as="geometry">
            <mxPoint x="600" y="280" as="sourcePoint" />
            <mxPoint x="620" y="280" as="targetPoint" />
          </mxGeometry>
        </mxCell>
        <mxCell id="oD9RIdHMMdvpA3VCm38I-60" value="IdBrigade&amp;nbsp;" style="rounded=1;whiteSpace=wrap;html=1;arcSize=46;" parent="1" vertex="1">
          <mxGeometry x="370" y="320" width="120" height="20" as="geometry" />
        </mxCell>
        <mxCell id="oD9RIdHMMdvpA3VCm38I-61" value="" style="endArrow=none;html=1;rounded=0;entryX=0.5;entryY=0;entryDx=0;entryDy=0;exitX=0;exitY=1;exitDx=0;exitDy=0;" parent="1" source="oD9RIdHMMdvpA3VCm38I-50" target="oD9RIdHMMdvpA3VCm38I-60" edge="1">
          <mxGeometry width="50" height="50" relative="1" as="geometry">
            <mxPoint x="600" y="320" as="sourcePoint" />
            <mxPoint x="640" y="365" as="targetPoint" />
          </mxGeometry>
        </mxCell>
        <mxCell id="oD9RIdHMMdvpA3VCm38I-63" value="включает" style="rhombus;whiteSpace=wrap;html=1;" parent="1" vertex="1">
          <mxGeometry x="575" y="200" width="60" height="40" as="geometry" />
        </mxCell>
        <mxCell id="oD9RIdHMMdvpA3VCm38I-64" value="включает" style="rhombus;whiteSpace=wrap;html=1;" parent="1" vertex="1">
          <mxGeometry x="670" y="300" width="60" height="40" as="geometry" />
        </mxCell>
        <mxCell id="oD9RIdHMMdvpA3VCm38I-65" value="" style="endArrow=classic;html=1;rounded=0;exitX=0.5;exitY=0;exitDx=0;exitDy=0;entryX=0.25;entryY=1;entryDx=0;entryDy=0;" parent="1" source="oD9RIdHMMdvpA3VCm38I-63" target="_JErElgk5kfkZ12CzzZY-13" edge="1">
          <mxGeometry width="50" height="50" relative="1" as="geometry">
            <mxPoint x="640" y="200" as="sourcePoint" />
            <mxPoint x="680" y="220" as="targetPoint" />
          </mxGeometry>
        </mxCell>
        <mxCell id="oD9RIdHMMdvpA3VCm38I-66" value="" style="endArrow=classic;html=1;rounded=0;exitX=0.5;exitY=1;exitDx=0;exitDy=0;entryX=1;entryY=0;entryDx=0;entryDy=0;" parent="1" source="oD9RIdHMMdvpA3VCm38I-63" target="oD9RIdHMMdvpA3VCm38I-50" edge="1">
          <mxGeometry width="50" height="50" relative="1" as="geometry">
            <mxPoint x="615" y="210" as="sourcePoint" />
            <mxPoint x="615" y="190" as="targetPoint" />
          </mxGeometry>
        </mxCell>
        <mxCell id="oD9RIdHMMdvpA3VCm38I-67" value="" style="endArrow=classic;html=1;rounded=0;exitX=1;exitY=0.5;exitDx=0;exitDy=0;entryX=0.25;entryY=0;entryDx=0;entryDy=0;" parent="1" source="oD9RIdHMMdvpA3VCm38I-64" target="oD9RIdHMMdvpA3VCm38I-34" edge="1">
          <mxGeometry width="50" height="50" relative="1" as="geometry">
            <mxPoint x="625" y="220" as="sourcePoint" />
            <mxPoint x="625" y="200" as="targetPoint" />
          </mxGeometry>
        </mxCell>
        <mxCell id="oD9RIdHMMdvpA3VCm38I-68" value="" style="endArrow=classic;html=1;rounded=0;exitX=0;exitY=0.5;exitDx=0;exitDy=0;entryX=1;entryY=0.5;entryDx=0;entryDy=0;" parent="1" source="oD9RIdHMMdvpA3VCm38I-64" target="oD9RIdHMMdvpA3VCm38I-50" edge="1">
          <mxGeometry width="50" height="50" relative="1" as="geometry">
            <mxPoint x="730" y="290" as="sourcePoint" />
            <mxPoint x="790" y="290" as="targetPoint" />
          </mxGeometry>
        </mxCell>
        <mxCell id="oD9RIdHMMdvpA3VCm38I-69" value="Worker" style="rounded=0;whiteSpace=wrap;html=1;" parent="1" vertex="1">
          <mxGeometry x="300" y="170" width="100" height="40" as="geometry" />
        </mxCell>
        <mxCell id="oD9RIdHMMdvpA3VCm38I-70" value="Surname&amp;nbsp;" style="rounded=1;whiteSpace=wrap;html=1;arcSize=46;" parent="1" vertex="1">
          <mxGeometry x="370" y="130" width="71" height="20" as="geometry" />
        </mxCell>
        <mxCell id="oD9RIdHMMdvpA3VCm38I-71" value="Rate&amp;nbsp;" style="rounded=1;whiteSpace=wrap;html=1;arcSize=46;" parent="1" vertex="1">
          <mxGeometry x="414" y="190" width="46" height="20" as="geometry" />
        </mxCell>
        <mxCell id="oD9RIdHMMdvpA3VCm38I-72" value="Email&amp;nbsp;" style="rounded=1;whiteSpace=wrap;html=1;arcSize=46;" parent="1" vertex="1">
          <mxGeometry x="414" y="160" width="46" height="20" as="geometry" />
        </mxCell>
        <mxCell id="oD9RIdHMMdvpA3VCm38I-73" value="IdWorker&amp;nbsp;" style="rounded=1;whiteSpace=wrap;html=1;arcSize=46;" parent="1" vertex="1">
          <mxGeometry x="290" y="140" width="60" height="20" as="geometry" />
        </mxCell>
        <mxCell id="oD9RIdHMMdvpA3VCm38I-74" value="" style="endArrow=none;html=1;rounded=0;exitX=0.864;exitY=-0.007;exitDx=0;exitDy=0;entryX=0.25;entryY=1;entryDx=0;entryDy=0;exitPerimeter=0;" parent="1" source="oD9RIdHMMdvpA3VCm38I-69" target="oD9RIdHMMdvpA3VCm38I-70" edge="1">
          <mxGeometry width="50" height="50" relative="1" as="geometry">
            <mxPoint x="335" y="180" as="sourcePoint" />
            <mxPoint x="370" y="130" as="targetPoint" />
          </mxGeometry>
        </mxCell>
        <mxCell id="oD9RIdHMMdvpA3VCm38I-75" value="" style="endArrow=none;html=1;rounded=0;entryX=0;entryY=0.5;entryDx=0;entryDy=0;exitX=1;exitY=0;exitDx=0;exitDy=0;" parent="1" source="oD9RIdHMMdvpA3VCm38I-69" target="oD9RIdHMMdvpA3VCm38I-72" edge="1">
          <mxGeometry width="50" height="50" relative="1" as="geometry">
            <mxPoint x="350" y="170" as="sourcePoint" />
            <mxPoint x="380" y="130" as="targetPoint" />
          </mxGeometry>
        </mxCell>
        <mxCell id="oD9RIdHMMdvpA3VCm38I-76" value="" style="endArrow=none;html=1;rounded=0;entryX=0;entryY=0.5;entryDx=0;entryDy=0;exitX=1;exitY=0.5;exitDx=0;exitDy=0;" parent="1" source="oD9RIdHMMdvpA3VCm38I-69" target="oD9RIdHMMdvpA3VCm38I-71" edge="1">
          <mxGeometry width="50" height="50" relative="1" as="geometry">
            <mxPoint x="370" y="190" as="sourcePoint" />
            <mxPoint x="390" y="140" as="targetPoint" />
          </mxGeometry>
        </mxCell>
        <mxCell id="oD9RIdHMMdvpA3VCm38I-77" value="" style="endArrow=none;html=1;rounded=0;entryX=0.5;entryY=1;entryDx=0;entryDy=0;exitX=0.203;exitY=-0.034;exitDx=0;exitDy=0;exitPerimeter=0;" parent="1" source="oD9RIdHMMdvpA3VCm38I-69" target="oD9RIdHMMdvpA3VCm38I-73" edge="1">
          <mxGeometry width="50" height="50" relative="1" as="geometry">
            <mxPoint x="410" y="180" as="sourcePoint" />
            <mxPoint x="430" y="180" as="targetPoint" />
          </mxGeometry>
        </mxCell>
        <mxCell id="oD9RIdHMMdvpA3VCm38I-78" value="Name&amp;nbsp;" style="rounded=1;whiteSpace=wrap;html=1;arcSize=46;" parent="1" vertex="1">
          <mxGeometry x="303.5" y="110" width="66.5" height="20" as="geometry" />
        </mxCell>
        <mxCell id="oD9RIdHMMdvpA3VCm38I-79" value="" style="endArrow=none;html=1;rounded=0;entryX=0.75;entryY=1;entryDx=0;entryDy=0;exitX=0.75;exitY=0;exitDx=0;exitDy=0;" parent="1" source="oD9RIdHMMdvpA3VCm38I-69" target="oD9RIdHMMdvpA3VCm38I-78" edge="1">
          <mxGeometry width="50" height="50" relative="1" as="geometry">
            <mxPoint x="410" y="220" as="sourcePoint" />
            <mxPoint x="450" y="265" as="targetPoint" />
          </mxGeometry>
        </mxCell>
        <mxCell id="oD9RIdHMMdvpA3VCm38I-82" value="IdSpeciality&amp;nbsp;" style="rounded=1;whiteSpace=wrap;html=1;arcSize=46;" parent="1" vertex="1">
          <mxGeometry x="220" y="210" width="70" height="20" as="geometry" />
        </mxCell>
        <mxCell id="oD9RIdHMMdvpA3VCm38I-83" value="IdBrigade&amp;nbsp;" style="rounded=1;whiteSpace=wrap;html=1;arcSize=46;" parent="1" vertex="1">
          <mxGeometry x="270" y="240" width="60" height="20" as="geometry" />
        </mxCell>
        <mxCell id="oD9RIdHMMdvpA3VCm38I-84" value="" style="endArrow=none;html=1;rounded=0;entryX=0.75;entryY=0;entryDx=0;entryDy=0;exitX=0;exitY=0.75;exitDx=0;exitDy=0;" parent="1" source="oD9RIdHMMdvpA3VCm38I-69" target="oD9RIdHMMdvpA3VCm38I-82" edge="1">
          <mxGeometry width="50" height="50" relative="1" as="geometry">
            <mxPoint x="335" y="180" as="sourcePoint" />
            <mxPoint x="330" y="150" as="targetPoint" />
          </mxGeometry>
        </mxCell>
        <mxCell id="oD9RIdHMMdvpA3VCm38I-85" value="" style="endArrow=none;html=1;rounded=0;entryX=0.25;entryY=1;entryDx=0;entryDy=0;exitX=0.5;exitY=0;exitDx=0;exitDy=0;" parent="1" source="oD9RIdHMMdvpA3VCm38I-83" target="oD9RIdHMMdvpA3VCm38I-69" edge="1">
          <mxGeometry width="50" height="50" relative="1" as="geometry">
            <mxPoint x="310" y="210" as="sourcePoint" />
            <mxPoint x="283" y="220" as="targetPoint" />
          </mxGeometry>
        </mxCell>
        <mxCell id="oD9RIdHMMdvpA3VCm38I-86" value="включает" style="rhombus;whiteSpace=wrap;html=1;" parent="1" vertex="1">
          <mxGeometry x="370" y="240" width="60" height="40" as="geometry" />
        </mxCell>
        <mxCell id="oD9RIdHMMdvpA3VCm38I-87" value="" style="endArrow=classic;html=1;rounded=0;exitX=0.5;exitY=0;exitDx=0;exitDy=0;entryX=0.75;entryY=1;entryDx=0;entryDy=0;" parent="1" source="oD9RIdHMMdvpA3VCm38I-86" target="oD9RIdHMMdvpA3VCm38I-69" edge="1">
          <mxGeometry width="50" height="50" relative="1" as="geometry">
            <mxPoint x="490" y="150" as="sourcePoint" />
            <mxPoint x="465" y="120" as="targetPoint" />
          </mxGeometry>
        </mxCell>
        <mxCell id="oD9RIdHMMdvpA3VCm38I-88" value="" style="endArrow=classic;html=1;rounded=0;exitX=1;exitY=0.5;exitDx=0;exitDy=0;entryX=0;entryY=0.25;entryDx=0;entryDy=0;" parent="1" source="oD9RIdHMMdvpA3VCm38I-86" target="oD9RIdHMMdvpA3VCm38I-50" edge="1">
          <mxGeometry width="50" height="50" relative="1" as="geometry">
            <mxPoint x="410" y="250" as="sourcePoint" />
            <mxPoint x="385" y="220" as="targetPoint" />
          </mxGeometry>
        </mxCell>
        <mxCell id="oD9RIdHMMdvpA3VCm38I-89" value="включает" style="rhombus;whiteSpace=wrap;html=1;" parent="1" vertex="1">
          <mxGeometry x="203.5" y="150" width="60" height="40" as="geometry" />
        </mxCell>
        <mxCell id="oD9RIdHMMdvpA3VCm38I-90" value="" style="endArrow=classic;html=1;rounded=0;exitX=1;exitY=0.5;exitDx=0;exitDy=0;" parent="1" source="oD9RIdHMMdvpA3VCm38I-89" edge="1">
          <mxGeometry width="50" height="50" relative="1" as="geometry">
            <mxPoint x="223.5" y="290" as="sourcePoint" />
            <mxPoint x="300" y="190" as="targetPoint" />
          </mxGeometry>
        </mxCell>
        <mxCell id="oD9RIdHMMdvpA3VCm38I-91" value="" style="endArrow=classic;html=1;rounded=0;exitX=0;exitY=0.5;exitDx=0;exitDy=0;entryX=0.75;entryY=1;entryDx=0;entryDy=0;" parent="1" source="oD9RIdHMMdvpA3VCm38I-89" edge="1">
          <mxGeometry width="50" height="50" relative="1" as="geometry">
            <mxPoint x="123.5" y="180" as="sourcePoint" />
            <mxPoint x="178.5" y="140" as="targetPoint" />
          </mxGeometry>
        </mxCell>
        <mxCell id="oD9RIdHMMdvpA3VCm38I-92" value="TypeTrain" style="rounded=0;whiteSpace=wrap;html=1;" parent="1" vertex="1">
          <mxGeometry x="820" y="556" width="100" height="40" as="geometry" />
        </mxCell>
        <mxCell id="oD9RIdHMMdvpA3VCm38I-93" value="NameType" style="rounded=1;whiteSpace=wrap;html=1;arcSize=46;" parent="1" vertex="1">
          <mxGeometry x="950" y="576" width="90" height="20" as="geometry" />
        </mxCell>
        <mxCell id="oD9RIdHMMdvpA3VCm38I-94" value="IdTypeTrain" style="rounded=1;whiteSpace=wrap;html=1;arcSize=46;" parent="1" vertex="1">
          <mxGeometry x="950" y="550" width="80" height="20" as="geometry" />
        </mxCell>
        <mxCell id="oD9RIdHMMdvpA3VCm38I-96" value="" style="endArrow=none;html=1;rounded=0;exitX=1;exitY=0.75;exitDx=0;exitDy=0;" parent="1" source="oD9RIdHMMdvpA3VCm38I-92" edge="1">
          <mxGeometry width="50" height="50" relative="1" as="geometry">
            <mxPoint x="930" y="576" as="sourcePoint" />
            <mxPoint x="950" y="586" as="targetPoint" />
          </mxGeometry>
        </mxCell>
        <mxCell id="oD9RIdHMMdvpA3VCm38I-97" value="" style="endArrow=none;html=1;rounded=0;exitX=1;exitY=0.75;exitDx=0;exitDy=0;" parent="1" edge="1">
          <mxGeometry width="50" height="50" relative="1" as="geometry">
            <mxPoint x="920" y="559.81" as="sourcePoint" />
            <mxPoint x="950" y="559.81" as="targetPoint" />
          </mxGeometry>
        </mxCell>
        <mxCell id="oD9RIdHMMdvpA3VCm38I-98" value="Train" style="rounded=0;whiteSpace=wrap;html=1;" parent="1" vertex="1">
          <mxGeometry x="590" y="470" width="100" height="40" as="geometry" />
        </mxCell>
        <mxCell id="oD9RIdHMMdvpA3VCm38I-99" value="IdTypeTrain&amp;nbsp;" style="rounded=1;whiteSpace=wrap;html=1;arcSize=46;" parent="1" vertex="1">
          <mxGeometry x="590" y="440" width="80" height="20" as="geometry" />
        </mxCell>
        <mxCell id="oD9RIdHMMdvpA3VCm38I-100" value="NumberOfTrainCarriage&amp;nbsp;" style="rounded=1;whiteSpace=wrap;html=1;arcSize=46;" parent="1" vertex="1">
          <mxGeometry x="610" y="380" width="130" height="20" as="geometry" />
        </mxCell>
        <mxCell id="oD9RIdHMMdvpA3VCm38I-101" value="IdLocomative&amp;nbsp;" style="rounded=1;whiteSpace=wrap;html=1;arcSize=46;" parent="1" vertex="1">
          <mxGeometry x="555" y="410" width="85" height="20" as="geometry" />
        </mxCell>
        <mxCell id="oD9RIdHMMdvpA3VCm38I-102" value="Name&amp;nbsp;" style="rounded=1;whiteSpace=wrap;html=1;arcSize=46;" parent="1" vertex="1">
          <mxGeometry x="700" y="450" width="40" height="20" as="geometry" />
        </mxCell>
        <mxCell id="oD9RIdHMMdvpA3VCm38I-103" value="" style="endArrow=none;html=1;rounded=0;exitX=0.25;exitY=0;exitDx=0;exitDy=0;entryX=0.25;entryY=1;entryDx=0;entryDy=0;" parent="1" source="oD9RIdHMMdvpA3VCm38I-98" target="oD9RIdHMMdvpA3VCm38I-99" edge="1">
          <mxGeometry width="50" height="50" relative="1" as="geometry">
            <mxPoint x="625" y="480" as="sourcePoint" />
            <mxPoint x="660" y="430" as="targetPoint" />
          </mxGeometry>
        </mxCell>
        <mxCell id="oD9RIdHMMdvpA3VCm38I-104" value="" style="endArrow=none;html=1;rounded=0;entryX=0.25;entryY=1;entryDx=0;entryDy=0;exitX=0;exitY=0;exitDx=0;exitDy=0;" parent="1" source="oD9RIdHMMdvpA3VCm38I-98" target="oD9RIdHMMdvpA3VCm38I-101" edge="1">
          <mxGeometry width="50" height="50" relative="1" as="geometry">
            <mxPoint x="590" y="490" as="sourcePoint" />
            <mxPoint x="580" y="490" as="targetPoint" />
          </mxGeometry>
        </mxCell>
        <mxCell id="oD9RIdHMMdvpA3VCm38I-105" value="" style="endArrow=none;html=1;rounded=0;entryX=0.75;entryY=1;entryDx=0;entryDy=0;exitX=1;exitY=0;exitDx=0;exitDy=0;" parent="1" source="oD9RIdHMMdvpA3VCm38I-98" target="oD9RIdHMMdvpA3VCm38I-100" edge="1">
          <mxGeometry width="50" height="50" relative="1" as="geometry">
            <mxPoint x="660" y="490" as="sourcePoint" />
            <mxPoint x="680" y="440" as="targetPoint" />
          </mxGeometry>
        </mxCell>
        <mxCell id="oD9RIdHMMdvpA3VCm38I-106" value="" style="endArrow=none;html=1;rounded=0;entryX=0;entryY=0.5;entryDx=0;entryDy=0;exitX=1;exitY=0;exitDx=0;exitDy=0;" parent="1" source="oD9RIdHMMdvpA3VCm38I-98" target="oD9RIdHMMdvpA3VCm38I-102" edge="1">
          <mxGeometry width="50" height="50" relative="1" as="geometry">
            <mxPoint x="700" y="480" as="sourcePoint" />
            <mxPoint x="720" y="480" as="targetPoint" />
          </mxGeometry>
        </mxCell>
        <mxCell id="oD9RIdHMMdvpA3VCm38I-107" value="" style="endArrow=none;html=1;rounded=0;entryX=0.75;entryY=1;entryDx=0;entryDy=0;exitX=1;exitY=0;exitDx=0;exitDy=0;" parent="1" source="oD9RIdHMMdvpA3VCm38I-98" target="oD9RIdHMMdvpA3VCm38I-110" edge="1">
          <mxGeometry width="50" height="50" relative="1" as="geometry">
            <mxPoint x="700" y="520" as="sourcePoint" />
            <mxPoint x="530" y="520" as="targetPoint" />
          </mxGeometry>
        </mxCell>
        <mxCell id="oD9RIdHMMdvpA3VCm38I-110" value="IdTrain&amp;nbsp;" style="rounded=1;whiteSpace=wrap;html=1;arcSize=46;" parent="1" vertex="1">
          <mxGeometry x="644" y="410" width="56" height="20" as="geometry" />
        </mxCell>
        <mxCell id="oD9RIdHMMdvpA3VCm38I-111" value="включает" style="rhombus;whiteSpace=wrap;html=1;" parent="1" vertex="1">
          <mxGeometry x="705" y="516" width="60" height="40" as="geometry" />
        </mxCell>
        <mxCell id="oD9RIdHMMdvpA3VCm38I-112" value="" style="endArrow=classic;html=1;rounded=0;exitX=1;exitY=0.5;exitDx=0;exitDy=0;entryX=0;entryY=0.381;entryDx=0;entryDy=0;entryPerimeter=0;" parent="1" source="oD9RIdHMMdvpA3VCm38I-111" target="oD9RIdHMMdvpA3VCm38I-92" edge="1">
          <mxGeometry width="50" height="50" relative="1" as="geometry">
            <mxPoint x="670" y="476" as="sourcePoint" />
            <mxPoint x="825" y="536" as="targetPoint" />
          </mxGeometry>
        </mxCell>
        <mxCell id="oD9RIdHMMdvpA3VCm38I-113" value="" style="endArrow=classic;html=1;rounded=0;exitX=0;exitY=0.5;exitDx=0;exitDy=0;entryX=0.75;entryY=1;entryDx=0;entryDy=0;" parent="1" source="oD9RIdHMMdvpA3VCm38I-111" target="oD9RIdHMMdvpA3VCm38I-98" edge="1">
          <mxGeometry width="50" height="50" relative="1" as="geometry">
            <mxPoint x="775" y="546" as="sourcePoint" />
            <mxPoint x="635" y="546" as="targetPoint" />
          </mxGeometry>
        </mxCell>
        <mxCell id="oD9RIdHMMdvpA3VCm38I-115" value="включает" style="rhombus;whiteSpace=wrap;html=1;" parent="1" vertex="1">
          <mxGeometry x="725" y="470" width="60" height="40" as="geometry" />
        </mxCell>
        <mxCell id="oD9RIdHMMdvpA3VCm38I-116" value="" style="endArrow=classic;html=1;rounded=0;exitX=1;exitY=0.5;exitDx=0;exitDy=0;entryX=0.5;entryY=1;entryDx=0;entryDy=0;" parent="1" source="oD9RIdHMMdvpA3VCm38I-115" target="oD9RIdHMMdvpA3VCm38I-34" edge="1">
          <mxGeometry width="50" height="50" relative="1" as="geometry">
            <mxPoint x="690" y="430" as="sourcePoint" />
            <mxPoint x="845" y="490" as="targetPoint" />
          </mxGeometry>
        </mxCell>
        <mxCell id="oD9RIdHMMdvpA3VCm38I-117" value="" style="endArrow=classic;html=1;rounded=0;exitX=0;exitY=0.5;exitDx=0;exitDy=0;entryX=1;entryY=0.5;entryDx=0;entryDy=0;" parent="1" source="oD9RIdHMMdvpA3VCm38I-115" target="oD9RIdHMMdvpA3VCm38I-98" edge="1">
          <mxGeometry width="50" height="50" relative="1" as="geometry">
            <mxPoint x="795" y="500" as="sourcePoint" />
            <mxPoint x="655" y="500" as="targetPoint" />
          </mxGeometry>
        </mxCell>
        <mxCell id="oD9RIdHMMdvpA3VCm38I-118" value="Driver" style="rounded=0;whiteSpace=wrap;html=1;" parent="1" vertex="1">
          <mxGeometry x="250" y="350" width="100" height="40" as="geometry" />
        </mxCell>
        <mxCell id="oD9RIdHMMdvpA3VCm38I-119" value="DateOfMedicalExamination&amp;nbsp;" style="rounded=1;whiteSpace=wrap;html=1;arcSize=46;" parent="1" vertex="1">
          <mxGeometry x="199" y="400" width="151" height="20" as="geometry" />
        </mxCell>
        <mxCell id="oD9RIdHMMdvpA3VCm38I-120" value="IdDriver&amp;nbsp;" style="rounded=1;whiteSpace=wrap;html=1;arcSize=46;" parent="1" vertex="1">
          <mxGeometry x="253.5" y="310" width="50" height="20" as="geometry" />
        </mxCell>
        <mxCell id="oD9RIdHMMdvpA3VCm38I-121" value="" style="endArrow=none;html=1;rounded=0;entryX=0.5;entryY=1;entryDx=0;entryDy=0;exitX=0.5;exitY=0;exitDx=0;exitDy=0;" parent="1" source="oD9RIdHMMdvpA3VCm38I-118" target="oD9RIdHMMdvpA3VCm38I-120" edge="1">
          <mxGeometry width="50" height="50" relative="1" as="geometry">
            <mxPoint x="70" y="400" as="sourcePoint" />
            <mxPoint x="80" y="340" as="targetPoint" />
          </mxGeometry>
        </mxCell>
        <mxCell id="oD9RIdHMMdvpA3VCm38I-122" value="" style="endArrow=none;html=1;rounded=0;entryX=0.5;entryY=0;entryDx=0;entryDy=0;exitX=0.5;exitY=1;exitDx=0;exitDy=0;" parent="1" source="oD9RIdHMMdvpA3VCm38I-118" target="oD9RIdHMMdvpA3VCm38I-119" edge="1">
          <mxGeometry width="50" height="50" relative="1" as="geometry">
            <mxPoint x="360" y="370" as="sourcePoint" />
            <mxPoint x="435" y="350" as="targetPoint" />
          </mxGeometry>
        </mxCell>
        <mxCell id="oD9RIdHMMdvpA3VCm38I-123" value="IdWorker&amp;nbsp;" style="rounded=1;whiteSpace=wrap;html=1;arcSize=46;" parent="1" vertex="1">
          <mxGeometry x="200" y="330" width="50" height="20" as="geometry" />
        </mxCell>
        <mxCell id="oD9RIdHMMdvpA3VCm38I-124" value="" style="endArrow=none;html=1;rounded=0;entryX=0.5;entryY=1;entryDx=0;entryDy=0;exitX=0;exitY=0.5;exitDx=0;exitDy=0;" parent="1" source="oD9RIdHMMdvpA3VCm38I-118" target="oD9RIdHMMdvpA3VCm38I-123" edge="1">
          <mxGeometry width="50" height="50" relative="1" as="geometry">
            <mxPoint x="310" y="360" as="sourcePoint" />
            <mxPoint x="289" y="340" as="targetPoint" />
          </mxGeometry>
        </mxCell>
        <mxCell id="oD9RIdHMMdvpA3VCm38I-125" value="включает" style="rhombus;whiteSpace=wrap;html=1;" parent="1" vertex="1">
          <mxGeometry x="310" y="270" width="60" height="40" as="geometry" />
        </mxCell>
        <mxCell id="oD9RIdHMMdvpA3VCm38I-126" value="" style="endArrow=classic;html=1;rounded=0;exitX=0.5;exitY=0;exitDx=0;exitDy=0;entryX=0.5;entryY=1;entryDx=0;entryDy=0;" parent="1" source="oD9RIdHMMdvpA3VCm38I-125" target="oD9RIdHMMdvpA3VCm38I-69" edge="1">
          <mxGeometry width="50" height="50" relative="1" as="geometry">
            <mxPoint x="410" y="250" as="sourcePoint" />
            <mxPoint x="385" y="220" as="targetPoint" />
          </mxGeometry>
        </mxCell>
        <mxCell id="oD9RIdHMMdvpA3VCm38I-127" value="" style="endArrow=classic;html=1;rounded=0;exitX=0.5;exitY=1;exitDx=0;exitDy=0;entryX=0.75;entryY=0;entryDx=0;entryDy=0;" parent="1" source="oD9RIdHMMdvpA3VCm38I-125" target="oD9RIdHMMdvpA3VCm38I-118" edge="1">
          <mxGeometry width="50" height="50" relative="1" as="geometry">
            <mxPoint x="350" y="280" as="sourcePoint" />
            <mxPoint x="360" y="220" as="targetPoint" />
          </mxGeometry>
        </mxCell>
        <mxCell id="oD9RIdHMMdvpA3VCm38I-139" value="Train_Driver" style="rounded=0;whiteSpace=wrap;html=1;" parent="1" vertex="1">
          <mxGeometry x="363" y="486" width="100" height="40" as="geometry" />
        </mxCell>
        <mxCell id="oD9RIdHMMdvpA3VCm38I-140" value="IdTrainDriver&amp;nbsp;" style="rounded=1;whiteSpace=wrap;html=1;arcSize=46;" parent="1" vertex="1">
          <mxGeometry x="380" y="530" width="80" height="20" as="geometry" />
        </mxCell>
        <mxCell id="oD9RIdHMMdvpA3VCm38I-141" value="IdDriver&amp;nbsp;" style="rounded=1;whiteSpace=wrap;html=1;arcSize=46;" parent="1" vertex="1">
          <mxGeometry x="450" y="460" width="50" height="20" as="geometry" />
        </mxCell>
        <mxCell id="oD9RIdHMMdvpA3VCm38I-142" value="" style="endArrow=none;html=1;rounded=0;entryX=0.5;entryY=1;entryDx=0;entryDy=0;exitX=1;exitY=0;exitDx=0;exitDy=0;" parent="1" source="oD9RIdHMMdvpA3VCm38I-139" target="oD9RIdHMMdvpA3VCm38I-141" edge="1">
          <mxGeometry width="50" height="50" relative="1" as="geometry">
            <mxPoint x="161" y="536" as="sourcePoint" />
            <mxPoint x="171" y="476" as="targetPoint" />
          </mxGeometry>
        </mxCell>
        <mxCell id="oD9RIdHMMdvpA3VCm38I-143" value="" style="endArrow=none;html=1;rounded=0;entryX=0.5;entryY=0;entryDx=0;entryDy=0;exitX=0.639;exitY=1.015;exitDx=0;exitDy=0;exitPerimeter=0;" parent="1" source="oD9RIdHMMdvpA3VCm38I-139" target="oD9RIdHMMdvpA3VCm38I-140" edge="1">
          <mxGeometry width="50" height="50" relative="1" as="geometry">
            <mxPoint x="451" y="506" as="sourcePoint" />
            <mxPoint x="526" y="486" as="targetPoint" />
          </mxGeometry>
        </mxCell>
        <mxCell id="oD9RIdHMMdvpA3VCm38I-144" value="IdTrain&amp;nbsp;" style="rounded=1;whiteSpace=wrap;html=1;arcSize=46;" parent="1" vertex="1">
          <mxGeometry x="395" y="460" width="50" height="20" as="geometry" />
        </mxCell>
        <mxCell id="oD9RIdHMMdvpA3VCm38I-145" value="" style="endArrow=none;html=1;rounded=0;entryX=0.5;entryY=1;entryDx=0;entryDy=0;exitX=0.5;exitY=0;exitDx=0;exitDy=0;" parent="1" source="oD9RIdHMMdvpA3VCm38I-139" target="oD9RIdHMMdvpA3VCm38I-144" edge="1">
          <mxGeometry width="50" height="50" relative="1" as="geometry">
            <mxPoint x="401" y="496" as="sourcePoint" />
            <mxPoint x="380" y="476" as="targetPoint" />
          </mxGeometry>
        </mxCell>
        <mxCell id="oD9RIdHMMdvpA3VCm38I-147" value="включает" style="rhombus;whiteSpace=wrap;html=1;" parent="1" vertex="1">
          <mxGeometry x="330" y="420" width="60" height="40" as="geometry" />
        </mxCell>
        <mxCell id="oD9RIdHMMdvpA3VCm38I-148" value="" style="endArrow=classic;html=1;rounded=0;exitX=0.5;exitY=0;exitDx=0;exitDy=0;entryX=1;entryY=1;entryDx=0;entryDy=0;" parent="1" source="oD9RIdHMMdvpA3VCm38I-147" target="oD9RIdHMMdvpA3VCm38I-118" edge="1">
          <mxGeometry width="50" height="50" relative="1" as="geometry">
            <mxPoint x="350" y="320" as="sourcePoint" />
            <mxPoint x="335" y="360" as="targetPoint" />
          </mxGeometry>
        </mxCell>
        <mxCell id="oD9RIdHMMdvpA3VCm38I-149" value="" style="endArrow=classic;html=1;rounded=0;exitX=0.5;exitY=1;exitDx=0;exitDy=0;entryX=0.25;entryY=0;entryDx=0;entryDy=0;" parent="1" source="oD9RIdHMMdvpA3VCm38I-147" target="oD9RIdHMMdvpA3VCm38I-139" edge="1">
          <mxGeometry width="50" height="50" relative="1" as="geometry">
            <mxPoint x="370" y="430" as="sourcePoint" />
            <mxPoint x="360" y="480" as="targetPoint" />
          </mxGeometry>
        </mxCell>
        <mxCell id="oD9RIdHMMdvpA3VCm38I-150" value="включает" style="rhombus;whiteSpace=wrap;html=1;" parent="1" vertex="1">
          <mxGeometry x="500" y="484" width="60" height="40" as="geometry" />
        </mxCell>
        <mxCell id="oD9RIdHMMdvpA3VCm38I-151" value="" style="endArrow=classic;html=1;rounded=0;exitX=0;exitY=0.5;exitDx=0;exitDy=0;entryX=1;entryY=0.5;entryDx=0;entryDy=0;" parent="1" source="oD9RIdHMMdvpA3VCm38I-150" target="oD9RIdHMMdvpA3VCm38I-139" edge="1">
          <mxGeometry width="50" height="50" relative="1" as="geometry">
            <mxPoint x="520" y="384" as="sourcePoint" />
            <mxPoint x="520" y="454" as="targetPoint" />
          </mxGeometry>
        </mxCell>
        <mxCell id="oD9RIdHMMdvpA3VCm38I-152" value="" style="endArrow=classic;html=1;rounded=0;exitX=1;exitY=0.5;exitDx=0;exitDy=0;entryX=0;entryY=0.5;entryDx=0;entryDy=0;" parent="1" source="oD9RIdHMMdvpA3VCm38I-150" target="oD9RIdHMMdvpA3VCm38I-98" edge="1">
          <mxGeometry width="50" height="50" relative="1" as="geometry">
            <mxPoint x="540" y="494" as="sourcePoint" />
            <mxPoint x="558" y="550" as="targetPoint" />
          </mxGeometry>
        </mxCell>
        <mxCell id="oD9RIdHMMdvpA3VCm38I-153" value="TypeTrainCarriage" style="rounded=0;whiteSpace=wrap;html=1;" parent="1" vertex="1">
          <mxGeometry x="950" y="616" width="100" height="40" as="geometry" />
        </mxCell>
        <mxCell id="oD9RIdHMMdvpA3VCm38I-154" value="NameType" style="rounded=1;whiteSpace=wrap;html=1;arcSize=46;" parent="1" vertex="1">
          <mxGeometry x="1080" y="636" width="90" height="20" as="geometry" />
        </mxCell>
        <mxCell id="oD9RIdHMMdvpA3VCm38I-155" value="IdTypeTrainCarriage" style="rounded=1;whiteSpace=wrap;html=1;arcSize=46;" parent="1" vertex="1">
          <mxGeometry x="1080" y="610" width="115" height="20" as="geometry" />
        </mxCell>
        <mxCell id="oD9RIdHMMdvpA3VCm38I-156" value="" style="endArrow=none;html=1;rounded=0;exitX=1;exitY=0.75;exitDx=0;exitDy=0;" parent="1" source="oD9RIdHMMdvpA3VCm38I-153" edge="1">
          <mxGeometry width="50" height="50" relative="1" as="geometry">
            <mxPoint x="1060" y="636" as="sourcePoint" />
            <mxPoint x="1080" y="646" as="targetPoint" />
          </mxGeometry>
        </mxCell>
        <mxCell id="oD9RIdHMMdvpA3VCm38I-157" value="" style="endArrow=none;html=1;rounded=0;exitX=1;exitY=0.75;exitDx=0;exitDy=0;" parent="1" edge="1">
          <mxGeometry width="50" height="50" relative="1" as="geometry">
            <mxPoint x="1050" y="619.81" as="sourcePoint" />
            <mxPoint x="1080" y="619.81" as="targetPoint" />
          </mxGeometry>
        </mxCell>
        <mxCell id="oD9RIdHMMdvpA3VCm38I-158" value="TrainCarriage" style="rounded=0;whiteSpace=wrap;html=1;" parent="1" vertex="1">
          <mxGeometry x="740" y="616" width="100" height="40" as="geometry" />
        </mxCell>
        <mxCell id="oD9RIdHMMdvpA3VCm38I-159" value="IdTrainCarriage&amp;nbsp;" style="rounded=1;whiteSpace=wrap;html=1;arcSize=46;" parent="1" vertex="1">
          <mxGeometry x="645" y="640" width="90" height="20" as="geometry" />
        </mxCell>
        <mxCell id="oD9RIdHMMdvpA3VCm38I-160" value="NumberOfSeats&amp;nbsp;" style="rounded=1;whiteSpace=wrap;html=1;arcSize=46;" parent="1" vertex="1">
          <mxGeometry x="640" y="616" width="95" height="20" as="geometry" />
        </mxCell>
        <mxCell id="oD9RIdHMMdvpA3VCm38I-163" value="IdTrain&amp;nbsp;" style="rounded=1;whiteSpace=wrap;html=1;arcSize=46;" parent="1" vertex="1">
          <mxGeometry x="765" y="585" width="45" height="20" as="geometry" />
        </mxCell>
        <mxCell id="oD9RIdHMMdvpA3VCm38I-164" value="IdTypeTrainCarriage&amp;nbsp;" style="rounded=1;whiteSpace=wrap;html=1;arcSize=46;" parent="1" vertex="1">
          <mxGeometry x="720" y="670" width="115" height="20" as="geometry" />
        </mxCell>
        <mxCell id="oD9RIdHMMdvpA3VCm38I-165" value="включает" style="rhombus;whiteSpace=wrap;html=1;" parent="1" vertex="1">
          <mxGeometry x="640" y="545" width="60" height="40" as="geometry" />
        </mxCell>
        <mxCell id="oD9RIdHMMdvpA3VCm38I-166" value="" style="endArrow=classic;html=1;rounded=0;exitX=0.5;exitY=0;exitDx=0;exitDy=0;entryX=0.5;entryY=1;entryDx=0;entryDy=0;" parent="1" source="oD9RIdHMMdvpA3VCm38I-165" target="oD9RIdHMMdvpA3VCm38I-98" edge="1">
          <mxGeometry width="50" height="50" relative="1" as="geometry">
            <mxPoint x="715" y="546" as="sourcePoint" />
            <mxPoint x="675" y="520" as="targetPoint" />
          </mxGeometry>
        </mxCell>
        <mxCell id="oD9RIdHMMdvpA3VCm38I-167" value="" style="endArrow=classic;html=1;rounded=0;exitX=1;exitY=0.5;exitDx=0;exitDy=0;entryX=0.25;entryY=0;entryDx=0;entryDy=0;" parent="1" source="oD9RIdHMMdvpA3VCm38I-165" target="oD9RIdHMMdvpA3VCm38I-158" edge="1">
          <mxGeometry width="50" height="50" relative="1" as="geometry">
            <mxPoint x="775" y="546" as="sourcePoint" />
            <mxPoint x="830" y="581" as="targetPoint" />
          </mxGeometry>
        </mxCell>
        <mxCell id="oD9RIdHMMdvpA3VCm38I-168" value="" style="endArrow=none;html=1;rounded=0;exitX=0.5;exitY=0;exitDx=0;exitDy=0;entryX=0.5;entryY=1;entryDx=0;entryDy=0;" parent="1" source="oD9RIdHMMdvpA3VCm38I-158" target="oD9RIdHMMdvpA3VCm38I-163" edge="1">
          <mxGeometry width="50" height="50" relative="1" as="geometry">
            <mxPoint x="820" y="605" as="sourcePoint" />
            <mxPoint x="850" y="605" as="targetPoint" />
          </mxGeometry>
        </mxCell>
        <mxCell id="oD9RIdHMMdvpA3VCm38I-169" value="" style="endArrow=none;html=1;rounded=0;exitX=0;exitY=0.25;exitDx=0;exitDy=0;entryX=1;entryY=0.5;entryDx=0;entryDy=0;" parent="1" source="oD9RIdHMMdvpA3VCm38I-158" target="oD9RIdHMMdvpA3VCm38I-160" edge="1">
          <mxGeometry width="50" height="50" relative="1" as="geometry">
            <mxPoint x="800" y="626" as="sourcePoint" />
            <mxPoint x="798" y="615" as="targetPoint" />
          </mxGeometry>
        </mxCell>
        <mxCell id="oD9RIdHMMdvpA3VCm38I-170" value="" style="endArrow=none;html=1;rounded=0;exitX=0;exitY=0.75;exitDx=0;exitDy=0;entryX=1;entryY=0.5;entryDx=0;entryDy=0;" parent="1" source="oD9RIdHMMdvpA3VCm38I-158" target="oD9RIdHMMdvpA3VCm38I-159" edge="1">
          <mxGeometry width="50" height="50" relative="1" as="geometry">
            <mxPoint x="750" y="636" as="sourcePoint" />
            <mxPoint x="745" y="636" as="targetPoint" />
          </mxGeometry>
        </mxCell>
        <mxCell id="oD9RIdHMMdvpA3VCm38I-171" value="" style="endArrow=none;html=1;rounded=0;exitX=0.5;exitY=0;exitDx=0;exitDy=0;entryX=0.5;entryY=1;entryDx=0;entryDy=0;" parent="1" source="oD9RIdHMMdvpA3VCm38I-164" target="oD9RIdHMMdvpA3VCm38I-158" edge="1">
          <mxGeometry width="50" height="50" relative="1" as="geometry">
            <mxPoint x="760" y="646" as="sourcePoint" />
            <mxPoint x="755" y="646" as="targetPoint" />
          </mxGeometry>
        </mxCell>
        <mxCell id="oD9RIdHMMdvpA3VCm38I-172" value="включает" style="rhombus;whiteSpace=wrap;html=1;" parent="1" vertex="1">
          <mxGeometry x="860" y="620" width="60" height="40" as="geometry" />
        </mxCell>
        <mxCell id="oD9RIdHMMdvpA3VCm38I-173" value="" style="endArrow=classic;html=1;rounded=0;exitX=1;exitY=0.5;exitDx=0;exitDy=0;entryX=0;entryY=0.5;entryDx=0;entryDy=0;" parent="1" source="oD9RIdHMMdvpA3VCm38I-172" target="oD9RIdHMMdvpA3VCm38I-153" edge="1">
          <mxGeometry width="50" height="50" relative="1" as="geometry">
            <mxPoint x="775" y="546" as="sourcePoint" />
            <mxPoint x="830" y="581" as="targetPoint" />
          </mxGeometry>
        </mxCell>
        <mxCell id="oD9RIdHMMdvpA3VCm38I-174" value="" style="endArrow=classic;html=1;rounded=0;exitX=0;exitY=0.5;exitDx=0;exitDy=0;entryX=1;entryY=0.5;entryDx=0;entryDy=0;" parent="1" source="oD9RIdHMMdvpA3VCm38I-172" target="oD9RIdHMMdvpA3VCm38I-158" edge="1">
          <mxGeometry width="50" height="50" relative="1" as="geometry">
            <mxPoint x="930" y="650" as="sourcePoint" />
            <mxPoint x="960" y="646" as="targetPoint" />
          </mxGeometry>
        </mxCell>
        <mxCell id="oD9RIdHMMdvpA3VCm38I-175" value="Schedule" style="rounded=0;whiteSpace=wrap;html=1;" parent="1" vertex="1">
          <mxGeometry x="480" y="580" width="100" height="40" as="geometry" />
        </mxCell>
        <mxCell id="oD9RIdHMMdvpA3VCm38I-176" value="IdTrain&amp;nbsp;" style="rounded=1;whiteSpace=wrap;html=1;arcSize=46;" parent="1" vertex="1">
          <mxGeometry x="590" y="605" width="45" height="20" as="geometry" />
        </mxCell>
        <mxCell id="oD9RIdHMMdvpA3VCm38I-177" value="IdSchedule&amp;nbsp;" style="rounded=1;whiteSpace=wrap;html=1;arcSize=46;" parent="1" vertex="1">
          <mxGeometry x="482.5" y="550" width="72.5" height="20" as="geometry" />
        </mxCell>
        <mxCell id="oD9RIdHMMdvpA3VCm38I-180" value="включает" style="rhombus;whiteSpace=wrap;html=1;" parent="1" vertex="1">
          <mxGeometry x="555" y="524" width="60" height="40" as="geometry" />
        </mxCell>
        <mxCell id="oD9RIdHMMdvpA3VCm38I-181" value="" style="endArrow=classic;html=1;rounded=0;exitX=0.5;exitY=0;exitDx=0;exitDy=0;entryX=0;entryY=1;entryDx=0;entryDy=0;" parent="1" source="oD9RIdHMMdvpA3VCm38I-180" target="oD9RIdHMMdvpA3VCm38I-98" edge="1">
          <mxGeometry width="50" height="50" relative="1" as="geometry">
            <mxPoint x="570" y="514" as="sourcePoint" />
            <mxPoint x="600" y="500" as="targetPoint" />
          </mxGeometry>
        </mxCell>
        <mxCell id="oD9RIdHMMdvpA3VCm38I-182" value="" style="endArrow=classic;html=1;rounded=0;exitX=0.5;exitY=1;exitDx=0;exitDy=0;entryX=1;entryY=0;entryDx=0;entryDy=0;" parent="1" source="oD9RIdHMMdvpA3VCm38I-180" target="oD9RIdHMMdvpA3VCm38I-175" edge="1">
          <mxGeometry width="50" height="50" relative="1" as="geometry">
            <mxPoint x="570" y="514" as="sourcePoint" />
            <mxPoint x="600" y="500" as="targetPoint" />
          </mxGeometry>
        </mxCell>
        <mxCell id="oD9RIdHMMdvpA3VCm38I-183" value="IdRoute&amp;nbsp;" style="rounded=1;whiteSpace=wrap;html=1;arcSize=46;" parent="1" vertex="1">
          <mxGeometry x="590" y="576" width="55" height="20" as="geometry" />
        </mxCell>
        <mxCell id="oD9RIdHMMdvpA3VCm38I-185" value="" style="endArrow=none;html=1;rounded=0;exitX=0.5;exitY=1;exitDx=0;exitDy=0;entryX=0.5;entryY=0;entryDx=0;entryDy=0;" parent="1" source="oD9RIdHMMdvpA3VCm38I-177" target="oD9RIdHMMdvpA3VCm38I-175" edge="1">
          <mxGeometry width="50" height="50" relative="1" as="geometry">
            <mxPoint x="615" y="651" as="sourcePoint" />
            <mxPoint x="507" y="641" as="targetPoint" />
          </mxGeometry>
        </mxCell>
        <mxCell id="oD9RIdHMMdvpA3VCm38I-186" value="" style="endArrow=none;html=1;rounded=0;exitX=0;exitY=0.5;exitDx=0;exitDy=0;entryX=1;entryY=0.25;entryDx=0;entryDy=0;" parent="1" source="oD9RIdHMMdvpA3VCm38I-183" target="oD9RIdHMMdvpA3VCm38I-175" edge="1">
          <mxGeometry width="50" height="50" relative="1" as="geometry">
            <mxPoint x="559" y="560" as="sourcePoint" />
            <mxPoint x="570" y="570" as="targetPoint" />
          </mxGeometry>
        </mxCell>
        <mxCell id="oD9RIdHMMdvpA3VCm38I-187" value="" style="endArrow=none;html=1;rounded=0;exitX=0;exitY=0.5;exitDx=0;exitDy=0;entryX=1;entryY=0.75;entryDx=0;entryDy=0;" parent="1" source="oD9RIdHMMdvpA3VCm38I-176" target="oD9RIdHMMdvpA3VCm38I-175" edge="1">
          <mxGeometry width="50" height="50" relative="1" as="geometry">
            <mxPoint x="600" y="596" as="sourcePoint" />
            <mxPoint x="590" y="600" as="targetPoint" />
          </mxGeometry>
        </mxCell>
        <mxCell id="oD9RIdHMMdvpA3VCm38I-188" value="Route" style="rounded=0;whiteSpace=wrap;html=1;" parent="1" vertex="1">
          <mxGeometry x="210" y="575" width="100" height="40" as="geometry" />
        </mxCell>
        <mxCell id="oD9RIdHMMdvpA3VCm38I-189" value="NameRoute&amp;nbsp;" style="rounded=1;whiteSpace=wrap;html=1;arcSize=46;" parent="1" vertex="1">
          <mxGeometry x="217.5" y="544" width="75" height="20" as="geometry" />
        </mxCell>
        <mxCell id="oD9RIdHMMdvpA3VCm38I-190" value="IdRoute&amp;nbsp;" style="rounded=1;whiteSpace=wrap;html=1;arcSize=46;" parent="1" vertex="1">
          <mxGeometry x="298" y="544" width="65" height="20" as="geometry" />
        </mxCell>
        <mxCell id="oD9RIdHMMdvpA3VCm38I-194" value="ArravalTime&amp;nbsp;" style="rounded=1;whiteSpace=wrap;html=1;arcSize=46;" parent="1" vertex="1">
          <mxGeometry x="199" y="630" width="75" height="20" as="geometry" />
        </mxCell>
        <mxCell id="oD9RIdHMMdvpA3VCm38I-195" value="DepartureTime&amp;nbsp;" style="rounded=1;whiteSpace=wrap;html=1;arcSize=46;" parent="1" vertex="1">
          <mxGeometry x="260" y="516" width="90" height="20" as="geometry" />
        </mxCell>
        <mxCell id="oD9RIdHMMdvpA3VCm38I-196" value="включает" style="rhombus;whiteSpace=wrap;html=1;" parent="1" vertex="1">
          <mxGeometry x="370" y="580" width="60" height="40" as="geometry" />
        </mxCell>
        <mxCell id="oD9RIdHMMdvpA3VCm38I-197" value="" style="endArrow=classic;html=1;rounded=0;exitX=1;exitY=0.5;exitDx=0;exitDy=0;entryX=0;entryY=0.5;entryDx=0;entryDy=0;" parent="1" source="oD9RIdHMMdvpA3VCm38I-196" target="oD9RIdHMMdvpA3VCm38I-175" edge="1">
          <mxGeometry width="50" height="50" relative="1" as="geometry">
            <mxPoint x="570" y="514" as="sourcePoint" />
            <mxPoint x="600" y="500" as="targetPoint" />
          </mxGeometry>
        </mxCell>
        <mxCell id="oD9RIdHMMdvpA3VCm38I-198" value="" style="endArrow=classic;html=1;rounded=0;exitX=0;exitY=0.5;exitDx=0;exitDy=0;entryX=1;entryY=0.5;entryDx=0;entryDy=0;" parent="1" source="oD9RIdHMMdvpA3VCm38I-196" target="oD9RIdHMMdvpA3VCm38I-188" edge="1">
          <mxGeometry width="50" height="50" relative="1" as="geometry">
            <mxPoint x="440" y="610" as="sourcePoint" />
            <mxPoint x="490" y="610" as="targetPoint" />
          </mxGeometry>
        </mxCell>
        <mxCell id="oD9RIdHMMdvpA3VCm38I-201" value="" style="endArrow=none;html=1;rounded=0;entryX=0.25;entryY=0;entryDx=0;entryDy=0;exitX=0.25;exitY=1;exitDx=0;exitDy=0;" parent="1" source="oD9RIdHMMdvpA3VCm38I-189" target="oD9RIdHMMdvpA3VCm38I-188" edge="1">
          <mxGeometry width="50" height="50" relative="1" as="geometry">
            <mxPoint x="240" y="530" as="sourcePoint" />
            <mxPoint x="280" y="564" as="targetPoint" />
          </mxGeometry>
        </mxCell>
        <mxCell id="oD9RIdHMMdvpA3VCm38I-202" value="" style="endArrow=none;html=1;rounded=0;entryX=1;entryY=0;entryDx=0;entryDy=0;exitX=0.25;exitY=1;exitDx=0;exitDy=0;" parent="1" source="oD9RIdHMMdvpA3VCm38I-190" target="oD9RIdHMMdvpA3VCm38I-188" edge="1">
          <mxGeometry width="50" height="50" relative="1" as="geometry">
            <mxPoint x="246" y="574" as="sourcePoint" />
            <mxPoint x="245" y="585" as="targetPoint" />
          </mxGeometry>
        </mxCell>
        <mxCell id="oD9RIdHMMdvpA3VCm38I-203" value="" style="endArrow=none;html=1;rounded=0;entryX=0.855;entryY=0.007;entryDx=0;entryDy=0;exitX=0.399;exitY=1.009;exitDx=0;exitDy=0;entryPerimeter=0;exitPerimeter=0;" parent="1" source="oD9RIdHMMdvpA3VCm38I-195" target="oD9RIdHMMdvpA3VCm38I-188" edge="1">
          <mxGeometry width="50" height="50" relative="1" as="geometry">
            <mxPoint x="324" y="574" as="sourcePoint" />
            <mxPoint x="320" y="585" as="targetPoint" />
          </mxGeometry>
        </mxCell>
        <mxCell id="oD9RIdHMMdvpA3VCm38I-204" value="" style="endArrow=none;html=1;rounded=0;entryX=0.5;entryY=0;entryDx=0;entryDy=0;exitX=0.25;exitY=1;exitDx=0;exitDy=0;" parent="1" source="oD9RIdHMMdvpA3VCm38I-188" target="oD9RIdHMMdvpA3VCm38I-194" edge="1">
          <mxGeometry width="50" height="50" relative="1" as="geometry">
            <mxPoint x="246" y="574" as="sourcePoint" />
            <mxPoint x="245" y="585" as="targetPoint" />
          </mxGeometry>
        </mxCell>
        <mxCell id="oD9RIdHMMdvpA3VCm38I-205" value="Ticket" style="rounded=0;whiteSpace=wrap;html=1;" parent="1" vertex="1">
          <mxGeometry x="410" y="656" width="100" height="40" as="geometry" />
        </mxCell>
        <mxCell id="oD9RIdHMMdvpA3VCm38I-206" value="TimeofPurchase&amp;nbsp;" style="rounded=1;whiteSpace=wrap;html=1;arcSize=46;" parent="1" vertex="1">
          <mxGeometry x="525" y="656" width="100" height="20" as="geometry" />
        </mxCell>
        <mxCell id="oD9RIdHMMdvpA3VCm38I-207" value="IsTaken&amp;nbsp;" style="rounded=1;whiteSpace=wrap;html=1;arcSize=46;" parent="1" vertex="1">
          <mxGeometry x="534" y="680" width="56" height="20" as="geometry" />
        </mxCell>
        <mxCell id="oD9RIdHMMdvpA3VCm38I-208" value="IdRoute&amp;nbsp;" style="rounded=1;whiteSpace=wrap;html=1;arcSize=46;" parent="1" vertex="1">
          <mxGeometry x="350" y="676" width="50" height="20" as="geometry" />
        </mxCell>
        <mxCell id="oD9RIdHMMdvpA3VCm38I-213" value="IdTicket&amp;nbsp;" style="rounded=1;whiteSpace=wrap;html=1;arcSize=46;" parent="1" vertex="1">
          <mxGeometry x="412" y="630" width="50" height="20" as="geometry" />
        </mxCell>
        <mxCell id="oD9RIdHMMdvpA3VCm38I-214" value="PlaceofNumber&amp;nbsp;" style="rounded=1;whiteSpace=wrap;html=1;arcSize=46;" parent="1" vertex="1">
          <mxGeometry x="470" y="630" width="100" height="20" as="geometry" />
        </mxCell>
        <mxCell id="oD9RIdHMMdvpA3VCm38I-215" value="включает" style="rhombus;whiteSpace=wrap;html=1;" parent="1" vertex="1">
          <mxGeometry x="310" y="636" width="60" height="40" as="geometry" />
        </mxCell>
        <mxCell id="oD9RIdHMMdvpA3VCm38I-216" value="" style="endArrow=classic;html=1;rounded=0;exitX=1;exitY=0.5;exitDx=0;exitDy=0;entryX=0;entryY=0.25;entryDx=0;entryDy=0;" parent="1" source="oD9RIdHMMdvpA3VCm38I-215" target="oD9RIdHMMdvpA3VCm38I-205" edge="1">
          <mxGeometry width="50" height="50" relative="1" as="geometry">
            <mxPoint x="480" y="634" as="sourcePoint" />
            <mxPoint x="390" y="720" as="targetPoint" />
          </mxGeometry>
        </mxCell>
        <mxCell id="oD9RIdHMMdvpA3VCm38I-217" value="" style="endArrow=classic;html=1;rounded=0;exitX=0.5;exitY=0;exitDx=0;exitDy=0;entryX=1;entryY=1;entryDx=0;entryDy=0;" parent="1" source="oD9RIdHMMdvpA3VCm38I-215" target="oD9RIdHMMdvpA3VCm38I-188" edge="1">
          <mxGeometry width="50" height="50" relative="1" as="geometry">
            <mxPoint x="350" y="730" as="sourcePoint" />
            <mxPoint x="220" y="715" as="targetPoint" />
          </mxGeometry>
        </mxCell>
        <mxCell id="oD9RIdHMMdvpA3VCm38I-218" value="" style="endArrow=none;html=1;rounded=0;entryX=0.5;entryY=1;entryDx=0;entryDy=0;exitX=0.25;exitY=0;exitDx=0;exitDy=0;" parent="1" source="oD9RIdHMMdvpA3VCm38I-205" target="oD9RIdHMMdvpA3VCm38I-213" edge="1">
          <mxGeometry width="50" height="50" relative="1" as="geometry">
            <mxPoint x="390" y="780" as="sourcePoint" />
            <mxPoint x="440" y="730" as="targetPoint" />
          </mxGeometry>
        </mxCell>
        <mxCell id="oD9RIdHMMdvpA3VCm38I-219" value="" style="endArrow=none;html=1;rounded=0;entryX=0.252;entryY=0.962;entryDx=0;entryDy=0;exitX=0.75;exitY=0;exitDx=0;exitDy=0;entryPerimeter=0;" parent="1" source="oD9RIdHMMdvpA3VCm38I-205" target="oD9RIdHMMdvpA3VCm38I-214" edge="1">
          <mxGeometry width="50" height="50" relative="1" as="geometry">
            <mxPoint x="445" y="666" as="sourcePoint" />
            <mxPoint x="447" y="660" as="targetPoint" />
          </mxGeometry>
        </mxCell>
        <mxCell id="oD9RIdHMMdvpA3VCm38I-220" value="" style="endArrow=none;html=1;rounded=0;entryX=0;entryY=0.5;entryDx=0;entryDy=0;exitX=1;exitY=0.25;exitDx=0;exitDy=0;" parent="1" source="oD9RIdHMMdvpA3VCm38I-205" target="oD9RIdHMMdvpA3VCm38I-206" edge="1">
          <mxGeometry width="50" height="50" relative="1" as="geometry">
            <mxPoint x="495" y="666" as="sourcePoint" />
            <mxPoint x="505" y="659" as="targetPoint" />
          </mxGeometry>
        </mxCell>
        <mxCell id="oD9RIdHMMdvpA3VCm38I-221" value="" style="endArrow=none;html=1;rounded=0;entryX=0;entryY=0.5;entryDx=0;entryDy=0;exitX=1;exitY=0.75;exitDx=0;exitDy=0;" parent="1" source="oD9RIdHMMdvpA3VCm38I-205" target="oD9RIdHMMdvpA3VCm38I-207" edge="1">
          <mxGeometry width="50" height="50" relative="1" as="geometry">
            <mxPoint x="520" y="676" as="sourcePoint" />
            <mxPoint x="535" y="676" as="targetPoint" />
          </mxGeometry>
        </mxCell>
        <mxCell id="oD9RIdHMMdvpA3VCm38I-222" value="" style="endArrow=none;html=1;rounded=0;entryX=1;entryY=0.25;entryDx=0;entryDy=0;exitX=0;exitY=0.5;exitDx=0;exitDy=0;" parent="1" source="oD9RIdHMMdvpA3VCm38I-205" target="oD9RIdHMMdvpA3VCm38I-208" edge="1">
          <mxGeometry width="50" height="50" relative="1" as="geometry">
            <mxPoint x="520" y="696" as="sourcePoint" />
            <mxPoint x="539" y="710" as="targetPoint" />
          </mxGeometry>
        </mxCell>
        <mxCell id="oD9RIdHMMdvpA3VCm38I-223" value="Station" style="rounded=0;whiteSpace=wrap;html=1;" parent="1" vertex="1">
          <mxGeometry x="40" y="330" width="100" height="40" as="geometry" />
        </mxCell>
        <mxCell id="oD9RIdHMMdvpA3VCm38I-224" value="IdStation&amp;nbsp;" style="rounded=1;whiteSpace=wrap;html=1;arcSize=46;" parent="1" vertex="1">
          <mxGeometry x="20" y="300" width="70" height="20" as="geometry" />
        </mxCell>
        <mxCell id="oD9RIdHMMdvpA3VCm38I-225" value="NameStation&amp;nbsp;" style="rounded=1;whiteSpace=wrap;html=1;arcSize=46;" parent="1" vertex="1">
          <mxGeometry x="100" y="300" width="92.5" height="20" as="geometry" />
        </mxCell>
        <mxCell id="oD9RIdHMMdvpA3VCm38I-228" value="Station_Route" style="rounded=0;whiteSpace=wrap;html=1;" parent="1" vertex="1">
          <mxGeometry x="67.5" y="460" width="100" height="40" as="geometry" />
        </mxCell>
        <mxCell id="oD9RIdHMMdvpA3VCm38I-229" value="ArravalTime&amp;nbsp;" style="rounded=1;whiteSpace=wrap;html=1;arcSize=46;" parent="1" vertex="1">
          <mxGeometry x="180" y="460" width="80" height="20" as="geometry" />
        </mxCell>
        <mxCell id="oD9RIdHMMdvpA3VCm38I-230" value="DepartureTime&amp;nbsp;" style="rounded=1;whiteSpace=wrap;html=1;arcSize=46;" parent="1" vertex="1">
          <mxGeometry x="180" y="490" width="90" height="20" as="geometry" />
        </mxCell>
        <mxCell id="oD9RIdHMMdvpA3VCm38I-233" value="включает" style="rhombus;whiteSpace=wrap;html=1;" parent="1" vertex="1">
          <mxGeometry x="105" y="520" width="60" height="40" as="geometry" />
        </mxCell>
        <mxCell id="oD9RIdHMMdvpA3VCm38I-234" value="" style="endArrow=classic;html=1;rounded=0;exitX=0.5;exitY=0;exitDx=0;exitDy=0;entryX=0.5;entryY=1;entryDx=0;entryDy=0;" parent="1" source="oD9RIdHMMdvpA3VCm38I-233" target="oD9RIdHMMdvpA3VCm38I-228" edge="1">
          <mxGeometry width="50" height="50" relative="1" as="geometry">
            <mxPoint x="180" y="510" as="sourcePoint" />
            <mxPoint x="170" y="480" as="targetPoint" />
          </mxGeometry>
        </mxCell>
        <mxCell id="oD9RIdHMMdvpA3VCm38I-235" value="" style="endArrow=classic;html=1;rounded=0;exitX=1;exitY=0.5;exitDx=0;exitDy=0;entryX=0;entryY=0;entryDx=0;entryDy=0;" parent="1" source="oD9RIdHMMdvpA3VCm38I-233" target="oD9RIdHMMdvpA3VCm38I-188" edge="1">
          <mxGeometry width="50" height="50" relative="1" as="geometry">
            <mxPoint x="145" y="530" as="sourcePoint" />
            <mxPoint x="128" y="510" as="targetPoint" />
          </mxGeometry>
        </mxCell>
        <mxCell id="oD9RIdHMMdvpA3VCm38I-236" value="IdRoute&amp;nbsp;" style="rounded=1;whiteSpace=wrap;html=1;arcSize=46;" parent="1" vertex="1">
          <mxGeometry x="107.5" y="400" width="55" height="20" as="geometry" />
        </mxCell>
        <mxCell id="oD9RIdHMMdvpA3VCm38I-237" value="IdStation&amp;nbsp;" style="rounded=1;whiteSpace=wrap;html=1;arcSize=46;" parent="1" vertex="1">
          <mxGeometry x="25" y="516" width="55" height="20" as="geometry" />
        </mxCell>
        <mxCell id="oD9RIdHMMdvpA3VCm38I-238" value="IdStationRoute&amp;nbsp;" style="rounded=1;whiteSpace=wrap;html=1;arcSize=46;" parent="1" vertex="1">
          <mxGeometry x="140" y="430" width="90" height="20" as="geometry" />
        </mxCell>
        <mxCell id="oD9RIdHMMdvpA3VCm38I-240" value="" style="endArrow=none;html=1;rounded=0;entryX=1;entryY=0.75;entryDx=0;entryDy=0;exitX=0;exitY=0.5;exitDx=0;exitDy=0;" parent="1" source="oD9RIdHMMdvpA3VCm38I-230" target="oD9RIdHMMdvpA3VCm38I-228" edge="1">
          <mxGeometry width="50" height="50" relative="1" as="geometry">
            <mxPoint x="180" y="526" as="sourcePoint" />
            <mxPoint x="155" y="506" as="targetPoint" />
          </mxGeometry>
        </mxCell>
        <mxCell id="oD9RIdHMMdvpA3VCm38I-243" value="" style="endArrow=none;html=1;rounded=0;entryX=1;entryY=0.25;entryDx=0;entryDy=0;exitX=0;exitY=0.5;exitDx=0;exitDy=0;" parent="1" source="oD9RIdHMMdvpA3VCm38I-229" target="oD9RIdHMMdvpA3VCm38I-228" edge="1">
          <mxGeometry width="50" height="50" relative="1" as="geometry">
            <mxPoint x="190" y="510" as="sourcePoint" />
            <mxPoint x="178" y="500" as="targetPoint" />
          </mxGeometry>
        </mxCell>
        <mxCell id="oD9RIdHMMdvpA3VCm38I-245" value="" style="endArrow=none;html=1;rounded=0;entryX=0.75;entryY=0;entryDx=0;entryDy=0;exitX=0.25;exitY=1;exitDx=0;exitDy=0;" parent="1" source="oD9RIdHMMdvpA3VCm38I-238" target="oD9RIdHMMdvpA3VCm38I-228" edge="1">
          <mxGeometry width="50" height="50" relative="1" as="geometry">
            <mxPoint x="190" y="480" as="sourcePoint" />
            <mxPoint x="178" y="480" as="targetPoint" />
          </mxGeometry>
        </mxCell>
        <mxCell id="oD9RIdHMMdvpA3VCm38I-246" value="" style="endArrow=none;html=1;rounded=0;entryX=0.651;entryY=0.031;entryDx=0;entryDy=0;exitX=0.5;exitY=1;exitDx=0;exitDy=0;entryPerimeter=0;" parent="1" source="oD9RIdHMMdvpA3VCm38I-236" target="oD9RIdHMMdvpA3VCm38I-228" edge="1">
          <mxGeometry width="50" height="50" relative="1" as="geometry">
            <mxPoint x="173" y="460" as="sourcePoint" />
            <mxPoint x="153" y="470" as="targetPoint" />
          </mxGeometry>
        </mxCell>
        <mxCell id="oD9RIdHMMdvpA3VCm38I-247" value="" style="endArrow=none;html=1;rounded=0;entryX=0.75;entryY=0;entryDx=0;entryDy=0;exitX=0.25;exitY=1;exitDx=0;exitDy=0;" parent="1" source="oD9RIdHMMdvpA3VCm38I-228" target="oD9RIdHMMdvpA3VCm38I-237" edge="1">
          <mxGeometry width="50" height="50" relative="1" as="geometry">
            <mxPoint x="118" y="460" as="sourcePoint" />
            <mxPoint x="128" y="470" as="targetPoint" />
          </mxGeometry>
        </mxCell>
        <mxCell id="oD9RIdHMMdvpA3VCm38I-248" value="включает" style="rhombus;whiteSpace=wrap;html=1;" parent="1" vertex="1">
          <mxGeometry x="30" y="390" width="60" height="40" as="geometry" />
        </mxCell>
        <mxCell id="oD9RIdHMMdvpA3VCm38I-249" value="" style="endArrow=classic;html=1;rounded=0;exitX=0.5;exitY=0;exitDx=0;exitDy=0;entryX=0.25;entryY=1;entryDx=0;entryDy=0;" parent="1" source="oD9RIdHMMdvpA3VCm38I-248" target="oD9RIdHMMdvpA3VCm38I-223" edge="1">
          <mxGeometry width="50" height="50" relative="1" as="geometry">
            <mxPoint x="350" y="280" as="sourcePoint" />
            <mxPoint x="360" y="220" as="targetPoint" />
          </mxGeometry>
        </mxCell>
        <mxCell id="oD9RIdHMMdvpA3VCm38I-250" value="" style="endArrow=classic;html=1;rounded=0;exitX=0.5;exitY=1;exitDx=0;exitDy=0;entryX=0.25;entryY=0;entryDx=0;entryDy=0;" parent="1" source="oD9RIdHMMdvpA3VCm38I-248" target="oD9RIdHMMdvpA3VCm38I-228" edge="1">
          <mxGeometry width="50" height="50" relative="1" as="geometry">
            <mxPoint x="70" y="400" as="sourcePoint" />
            <mxPoint x="75" y="380" as="targetPoint" />
          </mxGeometry>
        </mxCell>
        <mxCell id="oD9RIdHMMdvpA3VCm38I-251" value="" style="endArrow=none;html=1;rounded=0;entryX=0.5;entryY=1;entryDx=0;entryDy=0;exitX=0.25;exitY=0;exitDx=0;exitDy=0;" parent="1" source="oD9RIdHMMdvpA3VCm38I-223" target="oD9RIdHMMdvpA3VCm38I-224" edge="1">
          <mxGeometry width="50" height="50" relative="1" as="geometry">
            <mxPoint x="95" y="295" as="sourcePoint" />
            <mxPoint x="120" y="265" as="targetPoint" />
          </mxGeometry>
        </mxCell>
        <mxCell id="oD9RIdHMMdvpA3VCm38I-252" value="" style="endArrow=none;html=1;rounded=0;entryX=0.25;entryY=1;entryDx=0;entryDy=0;exitX=0.75;exitY=0;exitDx=0;exitDy=0;" parent="1" source="oD9RIdHMMdvpA3VCm38I-223" target="oD9RIdHMMdvpA3VCm38I-225" edge="1">
          <mxGeometry width="50" height="50" relative="1" as="geometry">
            <mxPoint x="75" y="340" as="sourcePoint" />
            <mxPoint x="65" y="330" as="targetPoint" />
          </mxGeometry>
        </mxCell>
      </root>
    </mxGraphModel>
  </diagram>
</mxfile>
